<?xml version="1.0" encoding="utf-8"?>
<!-- Generator: Adobe Illustrator 26.0.3, SVG Export Plug-In . SVG Version: 6.00 Build 0)  -->
<svg version="1.0" id="katman_1" xmlns="http://www.w3.org/2000/svg" xmlns:xlink="http://www.w3.org/1999/xlink" x="0px" y="0px"
	 viewBox="0 0 800 600" style="enable-background:new 0 0 800 600;" xml:space="preserve">
<style type="text/css">
	.st0{fill:#3C3C3F;}
	.st1{fill:none;}
	.st2{fill:#010202;fill-opacity:0.12;}
	.st3{fill:#3C3C3F;fill-opacity:0.54;}
</style>
<g id="google-customer-reviews">
	<g id="Google" transform="translate(64.000000, 5.000000)">
		<path id="Shape" class="st0" d="M307.5,210.7h4.5c10.9,0.5,21.5,5.1,29.2,12.7c-3,2.9-5.9,5.9-8.9,8.8c-5-4.7-11.4-7.9-18.2-8.7
			c-7.8-1-15.9,0.7-22.5,4.9c-6,3.8-10.6,9.7-13.1,16.3c-3.2,8.7-2.7,18.8,1.6,27.1c3.4,6.7,9.2,12.2,16.1,15.2
			c6.9,3,14.7,3.5,22,1.8c6.1-1.4,11.6-4.8,15.7-9.4c3.5-4.1,5.1-9.4,5.8-14.6c-10.1,0-20.1,0-30.2,0c0-4.2,0-8.4,0-12.5
			c14.2,0,28.3,0,42.5,0c1.4,8.9,0.5,18.4-3.2,26.7c-3.1,7.1-8.7,12.8-15.2,16.9c-8.1,5.1-17.9,6.8-27.4,6.2
			c-11.5-0.7-22.6-6-30.6-14.2c-7.7-7.8-12.4-18.4-13-29.3v-4.4c0.6-10.4,4.8-20.5,11.9-28.2C283,217,295,211.3,307.5,210.7z"/>
		<path id="Shape_00000057860466138345685120000013153842706438941573_" class="st0" d="M505.6,245c5.9-3.4,13.2-4.7,19.9-2.9
			c3.9,1,7.2,3.2,10,6c0.1-1.8,0-3.5,0-5.3c4.2,0,8.4,0,12.6,0c0,17.8,0,35.5,0,53.3c0,7.5-1.8,15.4-6.8,21.3
			c-4.6,5.4-11.7,8.3-18.7,8.8c-6.7,0.6-13.7-0.8-19.2-4.6c-4.7-3.1-8.4-7.6-10.6-12.6c3.8-1.6,7.7-3.1,11.5-4.7
			c1.8,3.9,4.8,7.4,8.8,9.1c3.9,1.8,8.5,1.7,12.5,0.4c3.8-1.2,6.9-4.1,8.4-7.6c1.8-4.1,1.7-8.7,1.6-13c-2.6,2.5-5.5,4.7-9.1,5.8
			c-6.3,2-13.4,1.2-19.3-1.8c-6-3-10.8-8.2-13.5-14.2c-3.3-7.4-3.5-16.1-0.4-23.7C495.6,253.4,500,248.2,505.6,245z M516.8,253.3
			c-3.3,0.7-6.3,2.6-8.4,5.2c-4.7,5.7-5.3,14-2.4,20.6c1.5,3.4,4.1,6.3,7.5,7.9c4.6,2.3,10.3,2,14.7-0.6c3.8-2.3,6.5-6.2,7.5-10.4
			c1.7-6.9-0.1-15.1-5.9-19.7C526.3,253.3,521.3,252.2,516.8,253.3z"/>
		<path id="Shape_00000156560221585646663560000012609453313649923491_" class="st0" d="M556.9,212.9c4.4,0,8.8,0,13.2,0
			c0,29.8,0,59.6,0,89.4c-4.4,0-8.8,0-13.2,0C556.9,272.5,556.9,242.7,556.9,212.9z"/>
		<path id="Shape_00000016753950392847474640000005043969510741942174_" class="st0" d="M383.9,241.7c6.8-1.1,13.9,0,19.9,3.4
			c5,2.8,9.1,7.1,11.7,12.2c3.3,6.6,4,14.4,2.1,21.5c-1.7,6.5-5.8,12.3-11.3,16.1c-6,4.2-13.6,6-20.8,5.1
			c-7.8-0.8-15.3-4.9-20.1-11.2c-7.6-9.8-8-24.3-1.2-34.5C368.6,247.5,375.9,242.9,383.9,241.7z M385.2,253.3
			c-3.5,0.8-6.8,2.9-9,5.7c-4.2,5.3-5,12.9-2.5,19.1c1.8,4.4,5.4,8,9.9,9.5c4.5,1.6,9.8,1,13.8-1.5c4.1-2.5,6.9-6.8,7.8-11.5
			c1.4-6.6-0.8-14.2-6.4-18.3C395.1,253.3,389.9,252.2,385.2,253.3z"/>
		<path id="Shape_00000044146150861349323180000016968444249812455598_" class="st0" d="M593.2,246.2c6.3-4.3,14.4-5.9,21.8-4.2
			c6.4,1.4,12,5.6,15.7,10.9c2.3,3.2,3.7,6.9,5.2,10.5c-13.3,5.4-26.5,10.8-39.8,16.3c1.8,3.4,4.6,6.5,8.3,7.9
			c5.1,1.8,11.2,1.3,15.6-1.8c2.1-1.4,3.7-3.3,5.1-5.3c3.4,2.2,6.8,4.5,10.2,6.7c-3.9,5.6-9.6,10-16.3,11.8
			c-7.6,2.2-16.1,1.4-23-2.4c-5.3-2.8-9.6-7.4-12.1-12.7c-3.3-6.7-3.7-14.6-1.8-21.8C583.9,255.7,587.8,249.9,593.2,246.2z
			 M598.5,257.2c-3.2,3.4-4.5,8.1-4.5,12.6c9-3.6,17.9-7.3,26.9-11c-1-2.4-3-4.2-5.4-5.3C609.9,251,602.7,252.7,598.5,257.2z"/>
		<path id="Shape_00000018916254727972529080000007268047601082406801_" class="st0" d="M449.9,241.7c6.7-1.1,13.9,0.1,19.8,3.5
			c4.9,2.7,9,6.9,11.5,11.9c3.7,7.2,4.2,16,1.6,23.6c-2.2,6.5-6.9,12.2-12.9,15.6c-11.3,6.6-26.9,4.9-36.2-4.4
			c-9.4-9-11.3-24.4-4.9-35.6C433.1,248.4,441.2,243,449.9,241.7z M452,253.1c-3.4,0.6-6.6,2.3-9,4.9c-4.8,5-6,12.8-3.7,19.2
			c1.5,4.4,4.8,8.1,9.1,10c4.4,1.9,9.7,1.8,13.9-0.5c4.2-2.2,7.3-6.2,8.5-10.8c1.8-6.5,0.1-14.2-5-18.8
			C462.1,253.8,456.9,252.2,452,253.1z"/>
	</g>
	<g id="badge">
		<g id="circle-pieces">
			<ellipse id="white-fill" class="st1" cx="196.3" cy="299.6" rx="77.4" ry="77.3"/>
			<path id="green" class="st0" d="M297.8,299.6c0,56.4-45.8,102.1-102.2,102.1v-24.8c0.2,0,0.5,0,0.7,0c42.8,0,77.4-34.6,77.4-77.3
				H297.8z"/>
			<path id="blue" class="st0" d="M93.4,299.6h25.6c0,42.6,34.5,77.2,77.2,77.3v24.8c-0.2,0-0.3,0-0.5,0
				C139.1,401.7,93.4,356,93.4,299.6z"/>
			<path id="yellow" class="st0" d="M195.6,197.5c56.5,0,102.2,45.7,102.2,102.1c0,0.2,0,0.3,0,0.5h-24.1c0-0.2,0-0.3,0-0.5
				c0-42.7-34.7-77.3-77.4-77.3c-0.2,0-0.5,0-0.7,0V197.5z"/>
			<path id="red" class="st0" d="M93.4,300.1c0-0.2,0-0.3,0-0.5c0-56.4,45.8-102.1,102.2-102.1c0.2,0,0.3,0,0.5,0v24.8
				c-42.6,0.1-77.2,34.7-77.2,77.3c0,0.2,0,0.3,0,0.5H93.4z"/>
		</g>
		<path id="shadow" class="st2" d="M277.4,238.5c12.1,16.7,20.4,36.5,20.4,60.2c0,38.3-20.4,71.4-51.1,89.3l-49.6-53.1L277.4,238.5z
			"/>
		<polygon id="check" class="st0" points="145.5,283.4 159.4,267.8 194.8,289 289.4,197.5 301.9,208.9 197.1,334.9 		"/>
	</g>
	<path id="customer-reviews-copy" class="st3" d="M618.3,342.6c2.1-1.1,4.8,0.8,4.6,3.2c-0.1,2.4-3.1,3.9-5.1,2.5
		C615.8,347,616.1,343.5,618.3,342.6z M332.2,346.7c6.4-5.6,16.9-5.5,23.1,0.4c-0.7,1-1.3,2.1-2.3,2.9c-0.8,0.2-1.4-0.4-2.1-0.7
		c-3.8-2.7-9.2-3-13.3-0.8c-3.2,1.7-5.2,5.2-5.8,8.7c-0.7,4.1-0.3,8.6,2.1,12.2c1.8,2.8,5,4.7,8.3,4.9c3.2,0.2,6.6-0.2,9.1-2.4
		c0.6-0.4,1.2-1.2,2-1.1c1,0.7,1.7,1.7,2.5,2.5c-2.8,3.2-6.9,5.1-11.1,5.3c-4.4,0.4-9.1-0.8-12.5-3.8c-3.1-2.6-4.8-6.5-5.5-10.4V357
		C327.4,353.1,329.2,349.3,332.2,346.7z M541.2,343c3.9,0,7.9-0.1,11.8,0c3.5,0.2,7.4,1.2,9.6,4.2c2.6,3.9,2,9.7-1.4,12.9
		c-1.5,1.4-3.4,2.3-5.4,2.8c1.3,1,2.1,2.3,3,3.6c2.9,4,5.7,7.9,8.6,11.9c-1.7,0-3.3,0.1-5-0.1c-0.8,0-1.3-0.6-1.7-1.2
		c-2.8-4-5.7-8-8.5-12c-1.3-2-4-1-5.9-1.2c0,4.9,0,9.7,0,14.6c-1.7,0-3.4,0-5,0C541.2,366.6,541.2,354.8,541.2,343z M546.2,347
		c0,4.3,0,8.7,0,13c3.4-0.1,7.1,0.5,10.1-1.3c3.6-2.1,4.1-8.3,0.4-10.6C553.5,346.4,549.7,347.2,546.2,347z M408.5,345.5
		c1-0.3,2-0.1,3-0.2c0,2.8,0,5.6,0,8.4c2.3,0,4.7,0,7,0c0,1.1,0,2.3,0,3.4c-2.3,0-4.7,0-7,0c0,5.1,0,10.1,0,15.2
		c0,1.3,1,2.5,2.4,2.5c1.3,0.2,2.2-0.7,3.3-1.1c1,0.6,1.3,1.9,2,2.8c-2.5,2.1-6.2,2.9-9.2,1.6c-2.2-0.9-3.2-3.5-3.1-5.7
		c0-5.1,0-10.2,0-15.3c-1.1,0-2.3,0.1-3.4-0.1c-0.8-0.7-0.3-1.9-0.5-2.8c1.3-0.2,2.7-0.4,4-0.5c0.3-2.3,0.6-4.6,0.9-6.8
		C408.1,346.4,408.1,345.8,408.5,345.5z M387,354.6c4.2-2.7,10.2-2.2,13.8,1.2c-0.4,0.7-0.8,1.4-1.3,2.1c-0.7,0.7-1.6-0.1-2.2-0.4
		c-2-1.1-4.5-1.5-6.6-0.7c-1.3,0.5-2.4,1.8-2.2,3.3c0.1,1.2,1.1,1.9,2,2.4c3,1.4,6.6,1.7,9.1,4c1.9,1.8,2,4.7,1.1,7
		c-0.8,2.2-2.6,3.8-4.8,4.5c-4.2,1.5-9.2,0.6-12.6-2.3c0.7-0.9,1-2.6,2.5-2.5c1.3,0.5,2.3,1.5,3.7,1.8c2,0.6,4.4,0.6,6.1-0.8
		c1.5-1.2,1.8-3.9,0.1-5c-3.1-2.1-7.3-1.9-10-4.7C383,361.7,383.9,356.7,387,354.6z M429.3,353.3c3.7-0.8,7.8-0.3,10.8,2.1
		c2.8,2.2,4.1,5.9,4.3,9.4c0.2,3.8-0.7,7.9-3.4,10.7c-5,4.9-14.7,4.2-18.4-2c-2.2-3.8-2.4-8.6-1.2-12.7
		C422.3,357,425.5,354,429.3,353.3z M430.4,356.8c-2.8,0.6-4.5,3.4-4.8,6.1c-0.4,3.2-0.4,6.7,1.4,9.5c1.8,2.7,5.6,3.1,8.4,2.1
		c2.7-1.1,3.8-4.1,4.1-6.8c0.2-3,0.1-6.4-1.9-8.9C435.9,356.6,432.9,356.3,430.4,356.8z M453.3,356.7c1.9-2.2,4.6-4.1,7.6-3.7
		c2.8,0,4.9,2.4,5.6,5c1.9-5.1,9-6.5,13.2-3.4c2.3,1.8,3.1,4.9,3,7.7c0,5.4,0,10.7,0,16.1c-1.6,0-3.1,0-4.7,0c0-5.4,0-10.7,0-16.1
		c0-1.7-0.4-3.7-1.9-4.8c-2.2-1.4-5.5-0.9-7,1.3c-0.8,1.1-1,2.6-1,3.9c0,5.2,0,10.4,0,15.7c-1.6,0-3.1,0-4.7,0c0-5.5,0-11,0-16.5
		c0-2-0.8-4.5-3-5c-2.7-0.8-5.3,0.8-6.9,2.9c0,6.2,0,12.4,0,18.6c-1.6,0-3.1,0-4.7,0c0-8.3,0-16.7,0-25c1.2,0,2.3-0.2,3.5,0.1
		C453.3,354.2,453,355.6,453.3,356.7z M490.3,356c3.3-3.2,8.6-4,12.8-2.1c4.2,1.9,6.2,6.9,5.6,11.3c0,0.7-0.7,0.8-1.3,0.8
		c-5.4,0-10.8,0-16.1,0c0.1,2.5,0.7,5.2,2.5,7.1c2.1,2.1,5.5,2.3,8.2,1.5c1.5-0.4,2.7-1.4,4.1-1.9c1.1,0.1,1.6,1.5,2.3,2.2
		c-2.7,3-6.8,4-10.7,3.8c-3.1-0.2-6.2-1.5-8.1-3.9c-2.2-2.7-3-6.4-2.9-9.9C486.8,361.6,488,358.3,490.3,356z M494.9,357.2
		c-2.1,1.2-3,3.6-3.4,5.9c4.4,0,8.8,0,13.2,0c-0.1-1.7-0.5-3.5-1.7-4.8C501,356,497.4,355.9,494.9,357.2z M521.1,353.6
		c1.8-1,4-0.9,5.9-0.2c-0.1,1.4-0.1,2.8-0.4,4.1c-1.1,0.6-2.4-0.2-3.6,0c-2.8,0.1-4.7,2.7-5.4,5.2c-0.1,5.2,0,10.4,0,15.7
		c-1.6,0-3.1,0-4.7,0c0-8.3,0-16.7,0-25c1.2,0.1,2.5-0.2,3.6,0.2c0.9,1.3,0.5,3.1,0.7,4.7C518.2,356.4,519.3,354.6,521.1,353.6z
		 M573.2,354.1c4.2-2,10-1.5,13.1,2.2c2.1,2.5,3,6.1,2.4,9.3c-0.1,0.1-0.4,0.2-0.5,0.3c-5.6,0.2-11.2,0-16.8,0.1
		c0.1,2.5,0.7,5.2,2.5,7.1c1.9,1.9,4.9,2.3,7.4,1.7c1.7-0.3,3.1-1.3,4.6-2c1.3-0.5,1.9,1.3,2.7,2.1c-2.7,2.9-6.8,4-10.7,3.8
		c-3.2-0.1-6.4-1.6-8.3-4.2c-2.4-3.2-3.1-7.5-2.6-11.4C567.5,359.3,569.7,355.7,573.2,354.1z M575,357.2c-2.1,1.2-3,3.6-3.4,5.9
		c4.4,0,8.8,0,13.2,0c-0.1-1.8-0.5-3.7-1.9-5C580.9,356,577.5,355.9,575,357.2z M629.6,356.4c3.4-3.7,9.4-4.6,13.8-2.2
		c3.8,2.1,5.5,6.8,5,11c0,0.7-0.7,0.8-1.2,0.7c-5.4,0-10.8,0-16.2,0c0.1,2.5,0.7,5.2,2.5,7.1c2.1,2.1,5.5,2.3,8.2,1.5
		c1.5-0.4,2.7-1.5,4.2-1.9c1.1,0.1,1.6,1.5,2.3,2.2c-2.7,2.9-6.8,4-10.7,3.8c-3.1-0.1-6.2-1.5-8.1-3.9c-2.2-2.6-2.9-6.1-2.9-9.5
		C626.4,362.1,627.4,358.8,629.6,356.4z M634.5,357.2c-2.1,1.2-3,3.6-3.4,5.8c4.4,0,8.8,0,13.2,0c-0.1-1.7-0.5-3.5-1.7-4.8
		C640.6,356,637.1,355.9,634.5,357.2z M691.9,354.5c4.2-2.5,10-2,13.6,1.4c-0.7,0.8-0.9,2.4-2.2,2.3c-1.8-0.7-3.5-1.9-5.5-1.7
		c-1.9-0.1-4.1,0.8-4.6,2.8c-0.4,1.3,0.5,2.5,1.6,3.1c3,1.6,6.7,1.8,9.3,4.1c2.2,2,2.1,5.5,0.8,8c-1.5,2.9-4.9,4.2-8,4.2
		c-3.2,0.2-6.5-0.9-8.9-3c0.7-1,1.1-2.8,2.7-2.5c1.3,0.6,2.4,1.6,3.8,1.9c1.9,0.4,4,0.4,5.6-0.8c1.7-1.2,2-4.1,0.1-5.2
		c-3-2-7.1-1.9-9.8-4.5C687.6,361.8,688.5,356.5,691.9,354.5z M358.5,353.2c1.6,0,3.1,0,4.7,0c0,5.4,0,10.8,0,16.2
		c0,2.1,0.9,4.6,3.1,5.2c3.1,1,6.3-0.7,8.4-3c0-6.1,0-12.3,0-18.4c1.6,0,3.1,0,4.7,0c0,8.3,0,16.7,0,25c-1.1,0-2.3,0.2-3.5-0.1
		c-0.9-0.8-0.6-2.2-1-3.3c-1.6,1.6-3.5,3.1-5.8,3.6c-2.6,0.5-5.6,0.2-7.7-1.6c-2.1-1.8-2.8-4.7-2.8-7.3
		C358.5,364,358.6,358.6,358.5,353.2z M589.9,353.2c1.4,0,2.9-0.1,4.3,0.1c0.7,0.1,0.9,0.9,1.1,1.4c1.8,4.8,3.7,9.6,5.6,14.4
		c0.5,1.4,0.9,2.9,1.2,4.3c0.6-3,1.9-5.8,3-8.7c1.3-3.3,2.6-6.6,3.9-9.9c0.3-0.6,0.5-1.4,1.2-1.5c1.3-0.1,2.7,0,4,0
		c-3.4,8.3-6.7,16.7-10.1,25c-1.4,0-2.8,0-4.2,0C596.6,369.9,593.3,361.6,589.9,353.2z M617.3,353.3c1.6,0,3.1,0,4.7,0
		c0,8.3,0,16.7,0,25c-1.6,0-3.1,0-4.7,0C617.3,370,617.3,361.7,617.3,353.3z M649.9,353.3c1.6,0.2,3.4-0.5,4.8,0.4
		c0.9,2.1,1.4,4.5,2.1,6.7c1.2,4.3,2.7,8.5,3.5,12.9c1.6-6.2,3.8-12.2,5.7-18.2c0.3-0.7,0.4-1.7,1.3-1.8c1-0.1,2-0.1,2.9,0.1
		c0.8,0.4,0.9,1.5,1.2,2.2c1.8,5.9,3.9,11.7,5.4,17.8c1.2-6,3.3-11.7,4.9-17.6c0.3-0.8,0.4-2.2,1.5-2.4c1.3-0.1,2.5,0,3.8,0
		c-2.7,8.3-5.3,16.7-8,25c-1.4,0-2.8,0.1-4.1-0.1c-0.5-0.5-0.6-1.3-0.9-2c-1.8-5.8-3.9-11.6-5.5-17.5c-1.6,6-3.8,11.8-5.6,17.7
		c-0.3,0.6-0.3,1.6-1,1.8c-1.3,0.1-2.6,0-3.8,0.1C655.3,370,652.6,361.7,649.9,353.3z"/>
</g>
</svg>
