<?xml version="1.0" encoding="utf-8"?>
<!-- Generator: Adobe Illustrator 19.2.1, SVG Export Plug-In . SVG Version: 6.00 Build 0)  -->
<svg version="1.1" id="layer" xmlns="http://www.w3.org/2000/svg" xmlns:xlink="http://www.w3.org/1999/xlink" x="0px" y="0px"
	 viewBox="0 0 652 652" style="enable-background:new 0 0 652 652;" xml:space="preserve">
<style type="text/css">
	.st0{fill:#FF0000;}
</style>
<path class="st0" d="M228.4,284c-4,0-7.1,3.1-7.1,7.1v54.6l-57.8-58.3c-2.4-2.5-3.9-3.5-6.8-3.5c-4,0-7.1,3.1-7.1,7.1v71.7
	c0,4,3.1,7.1,7.1,7.1c4,0,7.1-3.1,7.1-7.1v-54.6l57.8,58.3c2.4,2.5,3.9,3.5,6.8,3.5c4,0,7.1-3.1,7.1-7.1v-71.7
	C235.5,287.1,232.3,284,228.4,284"/>
<path class="st0" d="M327,327c0,16.2-13.2,29.5-29.5,29.5c-16.3,0-29.5-13.2-29.5-29.5c0-16.3,13.2-29.5,29.5-29.5
	C313.8,297.5,327,310.7,327,327 M297.5,283.3c-24.1,0-43.7,19.6-43.7,43.7c0,24.1,19.6,43.7,43.7,43.7c24.1,0,43.7-19.6,43.7-43.7
	C341.2,302.9,321.6,283.3,297.5,283.3"/>
<path class="st0" d="M447.9,291.1c0-4-3.1-7.1-7.1-7.1c-2.9,0-4.4,1-6.8,3.5l-60.2,58.3v-54.7c0-4-3.1-7.1-7.1-7.1
	c-4,0-7.1,3.1-7.1,7.1v71.7c0,4,3.1,7.1,7.1,7.1c2.9,0,4.4-1,6.8-3.5l72.2-70.3C447.1,294.7,447.9,293,447.9,291.1"/>
<path class="st0" d="M489.8,308.2v29.1l-29.8,0L489.8,308.2z M496.9,284c-2.9,0-4.4,1-6.8,3.5l-72.2,70.3c-1.5,1.5-2.2,3.2-2.2,5.1
	c0,4,3.1,7.1,7.1,7.1c2.9,0,4.4-1,6.8-3.5l16.2-15.5l44.1,0v11.8c0,4,3.1,7.1,7.1,7.1c4,0,7.1-3.1,7.1-7.1v-71.7
	C504,287.1,500.9,284,496.9,284"/>
<path class="st0" d="M28.6,414.7c96.7,27.1,197,40.9,298.2,40.9c101.2,0,201.5-13.8,298.2-40.9V239.3
	c-96.7-27.1-197-40.9-298.2-40.9c-101.2,0-201.5,13.8-298.2,40.9V414.7z M326.8,469.2c-104.2,0-207.5-14.4-306.9-42.8
	c-2.9-0.8-4.9-3.5-4.9-6.5V234.2c0-3,2-5.7,4.9-6.5c99.4-28.4,202.7-42.8,306.9-42.8c104.2,0,207.4,14.4,306.9,42.8
	c2.9,0.8,4.9,3.5,4.9,6.5v185.6c0,3-2,5.7-4.9,6.5C534.2,454.8,431,469.2,326.8,469.2"/>
</svg>
