<svg xmlns="http://www.w3.org/2000/svg" xmlns:xlink="http://www.w3.org/1999/xlink" width="1920" zoomAndPan="magnify" viewBox="0 0 1440 809.999993" height="1080" preserveAspectRatio="xMidYMid meet" version="1.2"><defs><clipPath id="096489bf75"><path d="M 718 268.632812 L 721 268.632812 L 721 483 L 718 483 Z M 718 268.632812 "/></clipPath><clipPath id="87cabbe669"><path d="M 704 400 L 921.105469 400 L 921.105469 496 L 704 496 Z M 704 400 "/></clipPath><clipPath id="307da5e9be"><path d="M 704 465 L 858 465 L 858 652.273438 L 704 652.273438 Z M 704 465 "/></clipPath><clipPath id="71d54e1650"><path d="M 580 465 L 735 465 L 735 652.273438 L 580 652.273438 Z M 580 465 "/></clipPath><clipPath id="b4cedbe559"><path d="M 517.722656 400 L 735 400 L 735 496 L 517.722656 496 Z M 517.722656 400 "/></clipPath><clipPath id="e156017264"><path d="M 717 268.632812 L 920 268.632812 L 920 416 L 717 416 Z M 717 268.632812 "/></clipPath><clipPath id="377dbe4396"><path d="M 842 414 L 921.105469 414 L 921.105469 650 L 842 650 Z M 842 414 "/></clipPath><clipPath id="640742485a"><path d="M 597 649 L 845 649 L 845 652.273438 L 597 652.273438 Z M 597 649 "/></clipPath><clipPath id="cbd8d67b97"><path d="M 518 416 L 598 416 L 598 652.273438 L 518 652.273438 Z M 518 416 "/></clipPath><clipPath id="647dea6f8a"><path d="M 517.722656 270 L 720 270 L 720 418 L 517.722656 418 Z M 517.722656 270 "/></clipPath></defs><g id="0c9f29376f"><g clip-rule="nonzero" clip-path="url(#096489bf75)"><path style="fill:none;stroke-width:2;stroke-linecap:butt;stroke-linejoin:miter;stroke:#000000;stroke-opacity:0.25;stroke-miterlimit:4;" d="M 160.000662 160.000224 L 160.000662 0.000730256 " transform="matrix(1.315287,0,0,1.315287,508.967213,270.256852)"/></g><g clip-rule="nonzero" clip-path="url(#87cabbe669)"><path style="fill:none;stroke-width:2;stroke-linecap:butt;stroke-linejoin:miter;stroke:#000000;stroke-opacity:0.25;stroke-miterlimit:4;" d="M 160.000662 160.000224 L 312.168574 110.557606 " transform="matrix(1.315287,0,0,1.315287,508.967213,270.256852)"/></g><g clip-rule="nonzero" clip-path="url(#307da5e9be)"><path style="fill:none;stroke-width:2;stroke-linecap:butt;stroke-linejoin:miter;stroke:#000000;stroke-opacity:0.25;stroke-miterlimit:4;" d="M 160.000662 160.000224 L 254.044987 289.442588 " transform="matrix(1.315287,0,0,1.315287,508.967213,270.256852)"/></g><g clip-rule="nonzero" clip-path="url(#71d54e1650)"><path style="fill:none;stroke-width:2;stroke-linecap:butt;stroke-linejoin:miter;stroke:#000000;stroke-opacity:0.25;stroke-miterlimit:4;" d="M 160.000662 160.000224 L 65.953368 289.442588 " transform="matrix(1.315287,0,0,1.315287,508.967213,270.256852)"/></g><g clip-rule="nonzero" clip-path="url(#b4cedbe559)"><path style="fill:none;stroke-width:2;stroke-linecap:butt;stroke-linejoin:miter;stroke:#000000;stroke-opacity:0.25;stroke-miterlimit:4;" d="M 160.000662 160.000224 L 7.829781 110.557606 " transform="matrix(1.315287,0,0,1.315287,508.967213,270.256852)"/></g><path style=" stroke:none;fill-rule:nonzero;fill:#000000;fill-opacity:0.25;" d="M 720.1875 427.027344 L 726.570312 431.664062 L 727.636719 432.4375 L 726.089844 434.566406 L 725.023438 433.792969 L 717.574219 428.382812 L 719.121094 426.253906 Z M 732.957031 436.304688 L 739.339844 440.941406 L 740.402344 441.714844 L 738.859375 443.84375 L 737.792969 443.070312 L 730.34375 437.660156 L 731.890625 435.53125 Z M 745.722656 445.582031 L 752.109375 450.21875 L 753.171875 450.992188 L 751.625 453.121094 L 750.5625 452.347656 L 743.113281 446.9375 L 744.660156 444.808594 Z M 758.492188 454.859375 L 765.941406 460.269531 L 764.394531 462.398438 L 755.882812 456.214844 L 757.429688 454.085938 Z M 758.492188 454.859375 "/><path style=" stroke:none;fill-rule:nonzero;fill:#000000;fill-opacity:0.25;" d="M 770.699219 464.851562 L 768.261719 472.355469 L 767.855469 473.609375 L 765.355469 472.792969 L 765.761719 471.542969 L 768.605469 462.789062 L 771.105469 463.601562 Z M 765.824219 479.863281 L 763.382812 487.367188 L 762.976562 488.617188 L 760.476562 487.804688 L 760.882812 486.554688 L 763.726562 477.796875 L 766.230469 478.613281 Z M 760.945312 494.875 L 758.507812 502.378906 L 758.101562 503.628906 L 755.597656 502.816406 L 756.003906 501.566406 L 758.851562 492.808594 L 761.351562 493.621094 Z M 756.070312 509.882812 L 753.222656 518.640625 L 750.722656 517.828125 L 753.972656 507.820312 L 756.476562 508.632812 Z M 756.070312 509.882812 "/><path style=" stroke:none;fill-rule:nonzero;fill:#000000;fill-opacity:0.25;" d="M 750.335938 524.582031 L 741.128906 524.582031 L 741.128906 521.949219 L 751.652344 521.949219 L 751.652344 524.582031 Z M 734.554688 524.582031 L 725.347656 524.582031 L 725.347656 521.949219 L 735.871094 521.949219 L 735.871094 524.582031 Z M 718.769531 524.582031 L 709.5625 524.582031 L 709.5625 521.949219 L 720.085938 521.949219 L 720.085938 524.582031 Z M 702.988281 524.582031 L 693.78125 524.582031 L 693.78125 521.949219 L 704.300781 521.949219 L 704.300781 524.582031 Z M 702.988281 524.582031 "/><path style=" stroke:none;fill-rule:nonzero;fill:#000000;fill-opacity:0.25;" d="M 687.238281 523.671875 L 684.800781 516.167969 L 684.394531 514.917969 L 686.894531 514.105469 L 687.300781 515.355469 L 690.144531 524.109375 L 687.644531 524.921875 Z M 682.359375 508.660156 L 679.921875 501.15625 L 679.515625 499.90625 L 682.015625 499.09375 L 682.421875 500.34375 L 685.269531 509.101562 L 682.765625 509.914062 Z M 677.484375 493.652344 L 675.042969 486.144531 L 674.636719 484.894531 L 677.140625 484.082031 L 677.546875 485.332031 L 680.390625 494.089844 L 677.890625 494.902344 Z M 672.605469 478.640625 L 669.761719 469.882812 L 672.261719 469.070312 L 675.515625 479.078125 L 673.011719 479.890625 Z M 672.605469 478.640625 "/><path style=" stroke:none;fill-rule:nonzero;fill:#000000;fill-opacity:0.25;" d="M 668.605469 463.382812 L 674.988281 458.742188 L 676.050781 457.96875 L 677.597656 460.097656 L 676.535156 460.871094 L 669.085938 466.28125 L 667.539062 464.152344 Z M 681.371094 454.105469 L 687.757812 449.464844 L 688.820312 448.691406 L 690.367188 450.820312 L 689.304688 451.59375 L 681.855469 457.003906 L 680.308594 454.875 Z M 694.140625 444.828125 L 700.527344 440.1875 L 701.589844 439.414062 L 703.136719 441.542969 L 702.074219 442.316406 L 694.625 447.726562 L 693.078125 445.597656 Z M 706.910156 435.550781 L 714.359375 430.136719 L 715.90625 432.265625 L 707.394531 438.449219 L 705.847656 436.320312 Z M 706.910156 435.550781 "/><path style=" stroke:none;fill-rule:nonzero;fill:#000000;fill-opacity:0.25;" d="M 720.1875 374.414062 L 726.570312 379.054688 L 727.636719 379.828125 L 726.089844 381.957031 L 725.023438 381.183594 L 717.574219 375.769531 L 719.121094 373.644531 Z M 732.957031 383.691406 L 739.339844 388.332031 L 740.402344 389.105469 L 738.859375 391.234375 L 737.792969 390.460938 L 730.34375 385.046875 L 731.890625 382.921875 Z M 745.722656 392.96875 L 752.109375 397.609375 L 753.171875 398.382812 L 751.625 400.511719 L 750.5625 399.738281 L 743.113281 394.324219 L 744.660156 392.195312 Z M 758.492188 402.246094 L 764.878906 406.886719 L 765.941406 407.660156 L 764.394531 409.789062 L 763.332031 409.015625 L 755.882812 403.601562 L 757.429688 401.472656 Z M 771.261719 411.523438 L 777.648438 416.164062 L 778.710938 416.9375 L 777.164062 419.066406 L 776.101562 418.292969 L 768.652344 412.878906 L 770.199219 410.75 Z M 784.03125 420.800781 L 790.417969 425.441406 L 791.480469 426.214844 L 789.933594 428.34375 L 788.871094 427.570312 L 781.421875 422.15625 L 782.96875 420.027344 Z M 796.800781 430.078125 L 803.183594 434.71875 L 804.25 435.492188 L 802.703125 437.621094 L 801.640625 436.847656 L 794.191406 431.433594 L 795.738281 429.304688 Z M 809.570312 439.355469 L 817.019531 444.769531 L 815.472656 446.898438 L 806.960938 440.710938 L 808.503906 438.582031 Z M 809.570312 439.355469 "/><path style=" stroke:none;fill-rule:nonzero;fill:#000000;fill-opacity:0.25;" d="M 820.738281 448.59375 L 818.296875 456.097656 L 817.890625 457.351562 L 815.390625 456.535156 L 815.796875 455.285156 L 818.640625 446.53125 L 821.144531 447.34375 Z M 815.859375 463.605469 L 813.421875 471.109375 L 813.015625 472.359375 L 810.511719 471.546875 L 810.917969 470.296875 L 813.765625 461.539062 L 816.265625 462.355469 Z M 810.980469 478.617188 L 808.542969 486.121094 L 808.136719 487.371094 L 805.636719 486.558594 L 806.042969 485.308594 L 808.886719 476.550781 L 811.390625 477.363281 Z M 806.105469 493.625 L 803.667969 501.132812 L 803.261719 502.382812 L 800.757812 501.570312 L 801.164062 500.320312 L 804.007812 491.5625 L 806.511719 492.375 Z M 801.226562 508.636719 L 798.789062 516.144531 L 798.382812 517.394531 L 795.878906 516.582031 L 796.289062 515.328125 L 799.132812 506.574219 L 801.632812 507.386719 Z M 796.351562 523.648438 L 793.910156 531.152344 L 793.503906 532.40625 L 791.003906 531.59375 L 791.410156 530.339844 L 794.253906 521.585938 L 796.757812 522.398438 Z M 791.472656 538.660156 L 789.035156 546.164062 L 788.628906 547.414062 L 786.125 546.601562 L 786.53125 545.351562 L 789.378906 536.59375 L 791.878906 537.410156 Z M 786.59375 553.671875 L 783.75 562.425781 L 781.25 561.613281 L 784.5 551.605469 L 787.003906 552.417969 Z M 786.59375 553.671875 "/><path style=" stroke:none;fill-rule:nonzero;fill:#000000;fill-opacity:0.25;" d="M 781.261719 567.144531 L 772.054688 567.144531 L 772.054688 564.515625 L 782.578125 564.515625 L 782.578125 567.144531 Z M 765.476562 567.144531 L 756.269531 567.144531 L 756.269531 564.515625 L 766.792969 564.515625 L 766.792969 567.144531 Z M 749.695312 567.144531 L 740.488281 567.144531 L 740.488281 564.515625 L 751.011719 564.515625 L 751.011719 567.144531 Z M 733.910156 567.144531 L 724.703125 567.144531 L 724.703125 564.515625 L 735.226562 564.515625 L 735.226562 567.144531 Z M 718.128906 567.144531 L 708.921875 567.144531 L 708.921875 564.515625 L 719.441406 564.515625 L 719.441406 567.144531 Z M 702.34375 567.144531 L 693.136719 567.144531 L 693.136719 564.515625 L 703.660156 564.515625 L 703.660156 567.144531 Z M 686.5625 567.144531 L 677.355469 567.144531 L 677.355469 564.515625 L 687.875 564.515625 L 687.875 567.144531 Z M 670.777344 567.144531 L 661.570312 567.144531 L 661.570312 564.515625 L 672.09375 564.515625 L 672.09375 567.144531 Z M 670.777344 567.144531 "/><path style=" stroke:none;fill-rule:nonzero;fill:#000000;fill-opacity:0.25;" d="M 656.3125 566.238281 L 653.875 558.730469 L 653.46875 557.480469 L 655.96875 556.667969 L 656.375 557.917969 L 659.222656 566.675781 L 656.71875 567.488281 Z M 651.4375 551.226562 L 648.996094 543.71875 L 648.589844 542.46875 L 651.09375 541.65625 L 651.5 542.90625 L 654.34375 551.664062 L 651.84375 552.476562 Z M 646.558594 536.214844 L 644.121094 528.710938 L 643.714844 527.457031 L 646.214844 526.644531 L 646.621094 527.894531 L 649.46875 536.652344 L 646.964844 537.464844 Z M 641.683594 521.203125 L 639.242188 513.699219 L 638.835938 512.445312 L 641.339844 511.632812 L 641.746094 512.886719 L 644.589844 521.640625 L 642.089844 522.453125 Z M 636.804688 506.191406 L 634.367188 498.6875 L 633.960938 497.4375 L 636.460938 496.625 L 636.867188 497.875 L 639.710938 506.628906 L 637.210938 507.445312 Z M 631.925781 491.183594 L 629.488281 483.675781 L 629.082031 482.425781 L 631.582031 481.613281 L 631.988281 482.863281 L 634.835938 491.621094 L 632.332031 492.433594 Z M 627.050781 476.171875 L 624.609375 468.664062 L 624.203125 467.414062 L 626.707031 466.601562 L 627.113281 467.851562 L 629.957031 476.609375 L 627.457031 477.421875 Z M 622.171875 461.160156 L 619.328125 452.402344 L 621.828125 451.589844 L 625.082031 461.597656 L 622.578125 462.410156 Z M 622.171875 461.160156 "/><path style=" stroke:none;fill-rule:nonzero;fill:#000000;fill-opacity:0.25;" d="M 618.566406 447.121094 L 624.953125 442.484375 L 626.015625 441.710938 L 627.5625 443.839844 L 626.496094 444.613281 L 619.050781 450.023438 L 617.503906 447.894531 Z M 631.335938 437.847656 L 637.71875 433.207031 L 638.785156 432.433594 L 640.332031 434.5625 L 639.265625 435.335938 L 631.816406 440.746094 L 630.273438 438.617188 Z M 644.105469 428.570312 L 650.488281 423.929688 L 651.554688 423.15625 L 653.101562 425.285156 L 652.035156 426.058594 L 644.585938 431.46875 L 643.042969 429.339844 Z M 656.875 419.292969 L 663.257812 414.652344 L 664.324219 413.878906 L 665.871094 416.007812 L 664.804688 416.78125 L 657.355469 422.191406 L 655.808594 420.0625 Z M 669.644531 410.015625 L 676.027344 405.375 L 677.09375 404.601562 L 678.636719 406.730469 L 677.574219 407.503906 L 670.125 412.914062 L 668.578125 410.785156 Z M 682.414062 400.738281 L 688.796875 396.097656 L 689.859375 395.324219 L 691.40625 397.453125 L 690.34375 398.226562 L 682.894531 403.636719 L 681.347656 401.507812 Z M 695.179688 391.460938 L 701.566406 386.820312 L 702.628906 386.046875 L 704.175781 388.175781 L 703.113281 388.949219 L 695.664062 394.359375 L 694.117188 392.234375 Z M 707.949219 382.183594 L 715.398438 376.769531 L 716.945312 378.898438 L 708.433594 385.082031 L 706.886719 382.957031 Z M 707.949219 382.183594 "/><path style=" stroke:none;fill-rule:nonzero;fill:#000000;fill-opacity:0.25;" d="M 720.1875 321.804688 L 726.570312 326.441406 L 727.636719 327.214844 L 726.089844 329.34375 L 725.023438 328.570312 L 717.574219 323.160156 L 719.121094 321.03125 Z M 732.957031 331.082031 L 739.339844 335.71875 L 740.402344 336.492188 L 738.859375 338.621094 L 737.792969 337.847656 L 730.34375 332.4375 L 731.890625 330.308594 Z M 745.722656 340.359375 L 752.109375 344.996094 L 753.171875 345.769531 L 751.625 347.898438 L 750.5625 347.125 L 743.113281 341.714844 L 744.660156 339.585938 Z M 758.492188 349.636719 L 764.878906 354.273438 L 765.941406 355.046875 L 764.394531 357.175781 L 763.332031 356.402344 L 755.882812 350.992188 L 757.429688 348.863281 Z M 771.261719 358.914062 L 777.648438 363.550781 L 778.710938 364.324219 L 777.164062 366.453125 L 776.101562 365.679688 L 768.652344 360.269531 L 770.199219 358.140625 Z M 784.03125 368.191406 L 790.417969 372.828125 L 791.480469 373.601562 L 789.933594 375.730469 L 788.871094 374.957031 L 781.421875 369.546875 L 782.96875 367.417969 Z M 796.800781 377.46875 L 803.183594 382.105469 L 804.25 382.878906 L 802.703125 385.007812 L 801.640625 384.234375 L 794.191406 378.824219 L 795.738281 376.695312 Z M 809.570312 386.746094 L 815.953125 391.382812 L 817.019531 392.15625 L 815.472656 394.285156 L 814.40625 393.511719 L 806.960938 388.101562 L 808.503906 385.972656 Z M 822.339844 396.023438 L 828.722656 400.660156 L 829.789062 401.433594 L 828.242188 403.5625 L 827.175781 402.789062 L 819.730469 397.378906 L 821.273438 395.25 Z M 835.109375 405.300781 L 841.492188 409.9375 L 842.554688 410.710938 L 841.011719 412.839844 L 839.945312 412.066406 L 832.496094 406.65625 L 834.042969 404.527344 Z M 847.878906 414.578125 L 854.261719 419.214844 L 855.324219 419.988281 L 853.78125 422.117188 L 852.714844 421.34375 L 845.265625 415.933594 L 846.8125 413.804688 Z M 860.644531 423.855469 L 868.09375 429.265625 L 866.546875 431.394531 L 858.035156 425.210938 L 859.582031 423.082031 Z M 860.644531 423.855469 "/><path style=" stroke:none;fill-rule:nonzero;fill:#000000;fill-opacity:0.25;" d="M 870.773438 432.335938 L 868.335938 439.839844 L 867.929688 441.09375 L 865.425781 440.277344 L 865.832031 439.027344 L 868.679688 430.273438 L 871.179688 431.085938 Z M 865.894531 447.347656 L 863.457031 454.851562 L 863.050781 456.101562 L 860.550781 455.289062 L 860.957031 454.039062 L 863.800781 445.28125 L 866.300781 446.097656 Z M 861.019531 462.359375 L 858.582031 469.863281 L 858.171875 471.113281 L 855.671875 470.300781 L 856.078125 469.050781 L 858.921875 460.292969 L 861.425781 461.105469 Z M 856.140625 477.367188 L 853.703125 484.875 L 853.296875 486.125 L 850.792969 485.3125 L 851.199219 484.0625 L 854.046875 475.304688 L 856.546875 476.117188 Z M 851.265625 492.378906 L 848.824219 499.886719 L 848.417969 501.136719 L 845.917969 500.324219 L 846.324219 499.070312 L 849.167969 490.316406 L 851.671875 491.128906 Z M 846.386719 507.390625 L 843.949219 514.894531 L 843.542969 516.148438 L 841.039062 515.332031 L 841.445312 514.082031 L 844.292969 505.328125 L 846.792969 506.140625 Z M 841.507812 522.402344 L 839.070312 529.90625 L 838.664062 531.15625 L 836.164062 530.34375 L 836.570312 529.09375 L 839.414062 520.335938 L 841.914062 521.152344 Z M 836.632812 537.414062 L 834.195312 544.917969 L 833.785156 546.167969 L 831.285156 545.355469 L 831.691406 544.105469 L 834.535156 535.347656 L 837.039062 536.160156 Z M 831.753906 552.421875 L 829.316406 559.929688 L 828.910156 561.179688 L 826.40625 560.367188 L 826.8125 559.117188 L 829.660156 550.359375 L 832.160156 551.171875 Z M 826.878906 567.433594 L 824.4375 574.941406 L 824.03125 576.191406 L 821.53125 575.378906 L 821.9375 574.125 L 824.78125 565.371094 L 827.285156 566.183594 Z M 822 582.445312 L 819.5625 589.949219 L 819.15625 591.203125 L 816.652344 590.390625 L 817.058594 589.136719 L 819.90625 580.382812 L 822.40625 581.195312 Z M 817.121094 597.457031 L 814.277344 606.210938 L 811.777344 605.398438 L 815.027344 595.390625 L 817.527344 596.207031 Z M 817.121094 597.457031 "/><path style=" stroke:none;fill-rule:nonzero;fill:#000000;fill-opacity:0.25;" d="M 812.1875 609.707031 L 802.980469 609.707031 L 802.980469 607.078125 L 813.5 607.078125 L 813.5 609.707031 Z M 796.402344 609.707031 L 787.195312 609.707031 L 787.195312 607.078125 L 797.71875 607.078125 L 797.71875 609.707031 Z M 780.617188 609.707031 L 771.410156 609.707031 L 771.410156 607.078125 L 781.933594 607.078125 L 781.933594 609.707031 Z M 764.835938 609.707031 L 755.628906 609.707031 L 755.628906 607.078125 L 766.152344 607.078125 L 766.152344 609.707031 Z M 749.050781 609.707031 L 739.84375 609.707031 L 739.84375 607.078125 L 750.367188 607.078125 L 750.367188 609.707031 Z M 733.269531 609.707031 L 724.0625 609.707031 L 724.0625 607.078125 L 734.585938 607.078125 L 734.585938 609.707031 Z M 717.484375 609.707031 L 708.277344 609.707031 L 708.277344 607.078125 L 718.800781 607.078125 L 718.800781 609.707031 Z M 701.703125 609.707031 L 692.496094 609.707031 L 692.496094 607.078125 L 703.015625 607.078125 L 703.015625 609.707031 Z M 685.917969 609.707031 L 676.710938 609.707031 L 676.710938 607.078125 L 687.234375 607.078125 L 687.234375 609.707031 Z M 670.136719 609.707031 L 660.929688 609.707031 L 660.929688 607.078125 L 671.449219 607.078125 L 671.449219 609.707031 Z M 654.351562 609.707031 L 645.144531 609.707031 L 645.144531 607.078125 L 655.667969 607.078125 L 655.667969 609.707031 Z M 638.566406 609.707031 L 629.359375 609.707031 L 629.359375 607.078125 L 639.882812 607.078125 L 639.882812 609.707031 Z M 638.566406 609.707031 "/><path style=" stroke:none;fill-rule:nonzero;fill:#000000;fill-opacity:0.25;" d="M 625.390625 608.800781 L 622.949219 601.292969 L 622.542969 600.042969 L 625.046875 599.230469 L 625.453125 600.480469 L 628.296875 609.238281 L 625.796875 610.050781 Z M 620.511719 593.789062 L 618.074219 586.285156 L 617.667969 585.03125 L 620.167969 584.21875 L 620.574219 585.472656 L 623.421875 594.226562 L 620.917969 595.039062 Z M 615.636719 578.777344 L 613.195312 571.273438 L 612.789062 570.023438 L 615.292969 569.207031 L 615.699219 570.460938 L 618.542969 579.214844 L 616.042969 580.027344 Z M 610.757812 563.765625 L 608.320312 556.261719 L 607.914062 555.011719 L 610.414062 554.199219 L 610.820312 555.449219 L 613.664062 564.207031 L 611.164062 565.019531 Z M 605.878906 548.757812 L 603.441406 541.25 L 603.035156 540 L 605.535156 539.1875 L 605.941406 540.4375 L 608.789062 549.195312 L 606.285156 550.007812 Z M 601.003906 533.746094 L 598.5625 526.238281 L 598.15625 524.988281 L 600.660156 524.175781 L 601.066406 525.425781 L 603.910156 534.183594 L 601.410156 534.996094 Z M 596.125 518.734375 L 593.6875 511.230469 L 593.28125 509.976562 L 595.78125 509.164062 L 596.1875 510.414062 L 599.035156 519.171875 L 596.53125 519.984375 Z M 591.246094 503.722656 L 588.808594 496.21875 L 588.402344 494.96875 L 590.90625 494.152344 L 591.3125 495.40625 L 594.15625 504.160156 L 591.65625 504.972656 Z M 586.371094 488.710938 L 583.933594 481.207031 L 583.527344 479.957031 L 586.027344 479.144531 L 586.433594 480.394531 L 589.277344 489.152344 L 586.777344 489.964844 Z M 581.492188 473.703125 L 579.054688 466.195312 L 578.648438 464.945312 L 581.148438 464.132812 L 581.554688 465.382812 L 584.402344 474.140625 L 581.898438 474.953125 Z M 576.617188 458.691406 L 574.175781 451.183594 L 573.769531 449.933594 L 576.273438 449.121094 L 576.679688 450.371094 L 579.523438 459.128906 L 577.023438 459.941406 Z M 571.738281 443.679688 L 568.894531 434.921875 L 571.394531 434.109375 L 574.648438 444.117188 L 572.144531 444.929688 Z M 571.738281 443.679688 "/><path style=" stroke:none;fill-rule:nonzero;fill:#000000;fill-opacity:0.25;" d="M 568.53125 430.863281 L 574.914062 426.226562 L 575.980469 425.453125 L 577.527344 427.582031 L 576.460938 428.355469 L 569.011719 433.765625 L 567.464844 431.636719 Z M 581.300781 421.589844 L 587.683594 416.949219 L 588.75 416.175781 L 590.292969 418.304688 L 589.230469 419.078125 L 581.78125 424.488281 L 580.234375 422.359375 Z M 594.070312 412.3125 L 600.453125 407.671875 L 601.515625 406.898438 L 603.0625 409.027344 L 602 409.800781 L 594.550781 415.210938 L 593.003906 413.082031 Z M 606.835938 403.035156 L 613.222656 398.394531 L 614.285156 397.621094 L 615.832031 399.75 L 614.769531 400.523438 L 607.320312 405.933594 L 605.773438 403.804688 Z M 619.605469 393.757812 L 625.992188 389.117188 L 627.054688 388.34375 L 628.601562 390.472656 L 627.539062 391.246094 L 620.089844 396.65625 L 618.542969 394.527344 Z M 632.375 384.480469 L 638.761719 379.839844 L 639.824219 379.066406 L 641.371094 381.195312 L 640.308594 381.96875 L 632.859375 387.378906 L 631.3125 385.25 Z M 645.144531 375.203125 L 651.53125 370.5625 L 652.59375 369.789062 L 654.140625 371.917969 L 653.074219 372.691406 L 645.628906 378.101562 L 644.082031 375.976562 Z M 657.914062 365.925781 L 664.296875 361.285156 L 665.363281 360.511719 L 666.910156 362.640625 L 665.84375 363.414062 L 658.394531 368.824219 L 656.851562 366.699219 Z M 670.683594 356.648438 L 677.066406 352.007812 L 678.132812 351.234375 L 679.679688 353.363281 L 678.613281 354.136719 L 671.164062 359.546875 L 669.617188 357.421875 Z M 683.453125 347.371094 L 689.835938 342.730469 L 690.902344 341.957031 L 692.445312 344.085938 L 691.382812 344.859375 L 683.933594 350.269531 L 682.386719 348.144531 Z M 696.222656 338.09375 L 702.605469 333.453125 L 703.671875 332.679688 L 705.214844 334.808594 L 704.152344 335.582031 L 696.703125 340.992188 L 695.15625 338.867188 Z M 708.992188 328.816406 L 716.4375 323.402344 L 717.984375 325.53125 L 709.472656 331.714844 L 707.925781 329.589844 Z M 708.992188 328.816406 "/><g clip-rule="nonzero" clip-path="url(#e156017264)"><path style=" stroke:none;fill-rule:nonzero;fill:#000000;fill-opacity:0.25;" d="M 720.1875 269.191406 L 726.570312 273.832031 L 727.636719 274.605469 L 726.089844 276.734375 L 725.023438 275.960938 L 717.574219 270.546875 L 719.121094 268.417969 Z M 732.957031 278.46875 L 739.339844 283.109375 L 740.402344 283.882812 L 738.859375 286.011719 L 737.792969 285.238281 L 730.34375 279.824219 L 731.890625 277.695312 Z M 745.722656 287.746094 L 752.109375 292.386719 L 753.171875 293.160156 L 751.625 295.289062 L 750.5625 294.515625 L 743.113281 289.101562 L 744.660156 286.972656 Z M 758.492188 297.023438 L 764.878906 301.664062 L 765.941406 302.4375 L 764.394531 304.566406 L 763.332031 303.792969 L 755.882812 298.378906 L 757.429688 296.25 Z M 771.261719 306.300781 L 777.648438 310.941406 L 778.710938 311.714844 L 777.164062 313.839844 L 776.101562 313.070312 L 768.652344 307.65625 L 770.199219 305.527344 Z M 784.03125 315.578125 L 790.417969 320.21875 L 791.480469 320.992188 L 789.933594 323.117188 L 788.871094 322.347656 L 781.421875 316.933594 L 782.96875 314.804688 Z M 796.800781 324.855469 L 803.183594 329.496094 L 804.25 330.269531 L 802.703125 332.394531 L 801.640625 331.625 L 794.191406 326.210938 L 795.738281 324.082031 Z M 809.570312 334.132812 L 815.953125 338.773438 L 817.019531 339.546875 L 815.472656 341.671875 L 814.40625 340.902344 L 806.960938 335.488281 L 808.503906 333.359375 Z M 822.339844 343.410156 L 828.722656 348.050781 L 829.789062 348.824219 L 828.242188 350.949219 L 827.175781 350.179688 L 819.730469 344.765625 L 821.273438 342.636719 Z M 835.109375 352.6875 L 841.492188 357.328125 L 842.554688 358.101562 L 841.011719 360.226562 L 839.945312 359.457031 L 832.496094 354.042969 L 834.042969 351.914062 Z M 847.878906 361.964844 L 854.261719 366.605469 L 855.324219 367.378906 L 853.78125 369.503906 L 852.714844 368.730469 L 845.265625 363.320312 L 846.8125 361.191406 Z M 860.644531 371.242188 L 867.03125 375.882812 L 868.09375 376.65625 L 866.546875 378.78125 L 865.484375 378.007812 L 858.035156 372.597656 L 859.582031 370.46875 Z M 873.414062 380.519531 L 879.800781 385.160156 L 880.863281 385.933594 L 879.316406 388.058594 L 878.253906 387.285156 L 870.804688 381.875 L 872.351562 379.746094 Z M 886.183594 389.796875 L 892.570312 394.4375 L 893.632812 395.210938 L 892.085938 397.335938 L 891.023438 396.5625 L 883.574219 391.152344 L 885.121094 389.023438 Z M 898.953125 399.074219 L 905.339844 403.714844 L 906.402344 404.488281 L 904.855469 406.613281 L 903.792969 405.839844 L 896.34375 400.429688 L 897.890625 398.300781 Z M 911.722656 408.351562 L 919.171875 413.765625 L 917.625 415.890625 L 909.113281 409.707031 L 910.660156 407.578125 Z M 911.722656 408.351562 "/></g><g clip-rule="nonzero" clip-path="url(#377dbe4396)"><path style=" stroke:none;fill-rule:nonzero;fill:#000000;fill-opacity:0.25;" d="M 920.808594 416.078125 L 918.371094 423.582031 L 917.964844 424.835938 L 915.464844 424.019531 L 915.871094 422.769531 L 918.714844 414.015625 L 921.214844 414.828125 Z M 915.933594 431.089844 L 913.492188 438.59375 L 913.085938 439.84375 L 910.585938 439.03125 L 910.992188 437.78125 L 913.835938 429.023438 L 916.339844 429.839844 Z M 911.054688 446.101562 L 908.617188 453.605469 L 908.210938 454.855469 L 905.707031 454.042969 L 906.113281 452.792969 L 908.960938 444.035156 L 911.460938 444.847656 Z M 906.179688 461.109375 L 903.738281 468.617188 L 903.332031 469.867188 L 900.832031 469.054688 L 901.238281 467.804688 L 904.082031 459.046875 L 906.585938 459.859375 Z M 901.300781 476.121094 L 898.863281 483.628906 L 898.457031 484.878906 L 895.953125 484.066406 L 896.359375 482.8125 L 899.207031 474.058594 L 901.707031 474.871094 Z M 896.421875 491.132812 L 893.984375 498.636719 L 893.578125 499.890625 L 891.078125 499.074219 L 891.484375 497.824219 L 894.328125 489.070312 L 896.828125 489.882812 Z M 891.546875 506.144531 L 889.105469 513.648438 L 888.699219 514.898438 L 886.199219 514.085938 L 886.605469 512.835938 L 889.449219 504.078125 L 891.953125 504.894531 Z M 886.667969 521.15625 L 884.230469 528.660156 L 883.824219 529.910156 L 881.320312 529.097656 L 881.726562 527.847656 L 884.574219 519.089844 L 887.074219 519.902344 Z M 881.792969 536.164062 L 879.351562 543.671875 L 878.945312 544.921875 L 876.445312 544.109375 L 876.851562 542.859375 L 879.695312 534.101562 L 882.199219 534.914062 Z M 876.914062 551.175781 L 874.476562 558.683594 L 874.070312 559.933594 L 871.566406 559.121094 L 871.972656 557.867188 L 874.820312 549.113281 L 877.320312 549.925781 Z M 872.035156 566.1875 L 869.597656 573.691406 L 869.191406 574.945312 L 866.691406 574.132812 L 867.097656 572.878906 L 869.941406 564.125 L 872.441406 564.9375 Z M 867.160156 581.199219 L 864.71875 588.703125 L 864.3125 589.953125 L 861.8125 589.140625 L 862.21875 587.890625 L 865.0625 579.132812 L 867.566406 579.949219 Z M 862.28125 596.210938 L 859.84375 603.714844 L 859.4375 604.964844 L 856.933594 604.152344 L 857.339844 602.902344 L 860.1875 594.144531 L 862.6875 594.957031 Z M 857.40625 611.21875 L 854.964844 618.726562 L 854.558594 619.976562 L 852.058594 619.164062 L 852.464844 617.914062 L 855.308594 609.15625 L 857.8125 609.96875 Z M 852.527344 626.230469 L 850.089844 633.738281 L 849.683594 634.988281 L 847.179688 634.175781 L 847.585938 632.921875 L 850.433594 624.167969 L 852.933594 624.980469 Z M 847.648438 641.242188 L 844.804688 650 L 842.304688 649.1875 L 845.554688 639.179688 L 848.054688 639.992188 Z M 847.648438 641.242188 "/></g><g clip-rule="nonzero" clip-path="url(#640742485a)"><path style=" stroke:none;fill-rule:nonzero;fill:#000000;fill-opacity:0.25;" d="M 843.109375 652.273438 L 833.902344 652.273438 L 833.902344 649.640625 L 844.425781 649.640625 L 844.425781 652.273438 Z M 827.328125 652.273438 L 818.121094 652.273438 L 818.121094 649.640625 L 828.640625 649.640625 L 828.640625 652.273438 Z M 811.542969 652.273438 L 802.335938 652.273438 L 802.335938 649.640625 L 812.859375 649.640625 L 812.859375 652.273438 Z M 795.761719 652.273438 L 786.554688 652.273438 L 786.554688 649.640625 L 797.074219 649.640625 L 797.074219 652.273438 Z M 779.976562 652.273438 L 770.769531 652.273438 L 770.769531 649.640625 L 781.292969 649.640625 L 781.292969 652.273438 Z M 764.191406 652.273438 L 754.984375 652.273438 L 754.984375 649.640625 L 765.507812 649.640625 L 765.507812 652.273438 Z M 748.410156 652.273438 L 739.203125 652.273438 L 739.203125 649.640625 L 749.726562 649.640625 L 749.726562 652.273438 Z M 732.625 652.273438 L 723.417969 652.273438 L 723.417969 649.640625 L 733.941406 649.640625 L 733.941406 652.273438 Z M 716.84375 652.273438 L 707.636719 652.273438 L 707.636719 649.640625 L 718.15625 649.640625 L 718.15625 652.273438 Z M 701.058594 652.273438 L 691.851562 652.273438 L 691.851562 649.640625 L 702.375 649.640625 L 702.375 652.273438 Z M 685.277344 652.273438 L 676.070312 652.273438 L 676.070312 649.640625 L 686.589844 649.640625 L 686.589844 652.273438 Z M 669.492188 652.273438 L 660.285156 652.273438 L 660.285156 649.640625 L 670.808594 649.640625 L 670.808594 652.273438 Z M 653.707031 652.273438 L 644.5 652.273438 L 644.5 649.640625 L 655.023438 649.640625 L 655.023438 652.273438 Z M 637.925781 652.273438 L 628.71875 652.273438 L 628.71875 649.640625 L 639.242188 649.640625 L 639.242188 652.273438 Z M 622.140625 652.273438 L 612.933594 652.273438 L 612.933594 649.640625 L 623.457031 649.640625 L 623.457031 652.273438 Z M 606.359375 652.273438 L 597.152344 652.273438 L 597.152344 649.640625 L 607.671875 649.640625 L 607.671875 652.273438 Z M 606.359375 652.273438 "/></g><g clip-rule="nonzero" clip-path="url(#cbd8d67b97)"><path style=" stroke:none;fill-rule:nonzero;fill:#000000;fill-opacity:0.25;" d="M 594.464844 651.363281 L 592.027344 643.859375 L 591.621094 642.605469 L 594.121094 641.792969 L 594.527344 643.046875 L 597.375 651.800781 L 594.871094 652.613281 Z M 589.585938 636.351562 L 587.148438 628.847656 L 586.742188 627.597656 L 589.246094 626.785156 L 589.652344 628.035156 L 592.496094 636.789062 L 589.996094 637.605469 Z M 584.710938 621.339844 L 582.273438 613.835938 L 581.867188 612.585938 L 584.367188 611.773438 L 584.773438 613.023438 L 587.617188 621.78125 L 585.117188 622.59375 Z M 579.832031 606.332031 L 577.394531 598.824219 L 576.988281 597.574219 L 579.488281 596.761719 L 579.894531 598.011719 L 582.742188 606.769531 L 580.238281 607.582031 Z M 574.957031 591.320312 L 572.515625 583.8125 L 572.109375 582.5625 L 574.613281 581.75 L 575.019531 583 L 577.863281 591.757812 L 575.363281 592.570312 Z M 570.078125 576.308594 L 567.640625 568.804688 L 567.234375 567.550781 L 569.734375 566.738281 L 570.140625 567.992188 L 572.988281 576.746094 L 570.484375 577.558594 Z M 565.199219 561.296875 L 562.761719 553.792969 L 562.355469 552.542969 L 564.859375 551.730469 L 565.265625 552.980469 L 568.109375 561.734375 L 565.609375 562.550781 Z M 560.324219 546.285156 L 557.886719 538.78125 L 557.480469 537.53125 L 559.980469 536.71875 L 560.386719 537.96875 L 563.230469 546.726562 L 560.730469 547.539062 Z M 555.445312 531.277344 L 553.007812 523.769531 L 552.601562 522.519531 L 555.101562 521.707031 L 555.507812 522.957031 L 558.355469 531.714844 L 555.851562 532.527344 Z M 550.570312 516.265625 L 548.128906 508.757812 L 547.722656 507.507812 L 550.226562 506.695312 L 550.632812 507.945312 L 553.476562 516.703125 L 550.976562 517.515625 Z M 545.691406 501.253906 L 543.253906 493.75 L 542.847656 492.496094 L 545.347656 491.683594 L 545.753906 492.9375 L 548.601562 501.691406 L 546.097656 502.503906 Z M 540.8125 486.242188 L 538.375 478.738281 L 537.96875 477.488281 L 540.472656 476.675781 L 540.878906 477.925781 L 543.722656 486.679688 L 541.222656 487.492188 Z M 535.9375 471.230469 L 533.5 463.726562 L 533.09375 462.476562 L 535.59375 461.664062 L 536 462.914062 L 538.84375 471.671875 L 536.34375 472.484375 Z M 531.058594 456.222656 L 528.621094 448.714844 L 528.214844 447.464844 L 530.714844 446.652344 L 531.121094 447.902344 L 533.96875 456.660156 L 531.464844 457.472656 Z M 526.183594 441.210938 L 523.742188 433.703125 L 523.335938 432.453125 L 525.839844 431.640625 L 526.246094 432.890625 L 529.089844 441.648438 L 526.589844 442.460938 Z M 521.304688 426.199219 L 518.460938 417.441406 L 520.960938 416.628906 L 524.214844 426.636719 L 521.710938 427.449219 Z M 521.304688 426.199219 "/></g><g clip-rule="nonzero" clip-path="url(#647dea6f8a)"><path style=" stroke:none;fill-rule:nonzero;fill:#000000;fill-opacity:0.25;" d="M 518.492188 414.605469 L 524.878906 409.96875 L 525.941406 409.195312 L 527.488281 411.324219 L 526.425781 412.097656 L 518.976562 417.507812 L 517.429688 415.378906 Z M 531.261719 405.332031 L 537.648438 400.691406 L 538.710938 399.917969 L 540.257812 402.046875 L 539.195312 402.820312 L 531.746094 408.230469 L 530.199219 406.101562 Z M 544.03125 396.054688 L 550.417969 391.414062 L 551.480469 390.640625 L 553.027344 392.769531 L 551.964844 393.542969 L 544.515625 398.953125 L 542.96875 396.824219 Z M 556.800781 386.777344 L 563.1875 382.136719 L 564.25 381.363281 L 565.796875 383.492188 L 564.730469 384.265625 L 557.285156 389.675781 L 555.738281 387.546875 Z M 569.570312 377.5 L 575.953125 372.859375 L 577.019531 372.085938 L 578.566406 374.214844 L 577.5 374.988281 L 570.050781 380.398438 L 568.507812 378.269531 Z M 582.339844 368.222656 L 588.722656 363.582031 L 589.789062 362.808594 L 591.335938 364.9375 L 590.269531 365.710938 L 582.820312 371.121094 L 581.273438 368.992188 Z M 595.109375 358.945312 L 601.492188 354.304688 L 602.558594 353.53125 L 604.101562 355.660156 L 603.039062 356.433594 L 595.589844 361.84375 L 594.042969 359.714844 Z M 607.878906 349.667969 L 614.261719 345.027344 L 615.328125 344.253906 L 616.871094 346.382812 L 615.808594 347.15625 L 608.359375 352.566406 L 606.8125 350.441406 Z M 620.648438 340.390625 L 627.03125 335.75 L 628.09375 334.976562 L 629.640625 337.105469 L 628.578125 337.878906 L 621.128906 343.289062 L 619.582031 341.164062 Z M 633.414062 331.113281 L 639.800781 326.472656 L 640.863281 325.699219 L 642.410156 327.828125 L 641.347656 328.601562 L 633.898438 334.011719 L 632.351562 331.886719 Z M 646.183594 321.835938 L 652.570312 317.195312 L 653.632812 316.421875 L 655.179688 318.550781 L 654.117188 319.324219 L 646.667969 324.734375 L 645.121094 322.609375 Z M 658.953125 312.558594 L 665.339844 307.917969 L 666.402344 307.144531 L 667.949219 309.273438 L 666.882812 310.046875 L 659.4375 315.457031 L 657.890625 313.332031 Z M 671.722656 303.28125 L 678.109375 298.640625 L 679.171875 297.867188 L 680.71875 299.996094 L 679.652344 300.769531 L 672.207031 306.179688 L 670.660156 304.054688 Z M 684.492188 294.003906 L 690.875 289.363281 L 691.941406 288.589844 L 693.488281 290.71875 L 692.421875 291.492188 L 684.972656 296.902344 L 683.429688 294.777344 Z M 697.261719 284.726562 L 703.644531 280.085938 L 704.710938 279.3125 L 706.257812 281.441406 L 705.191406 282.214844 L 697.742188 287.625 L 696.195312 285.5 Z M 710.03125 275.449219 L 717.480469 270.035156 L 719.023438 272.164062 L 710.511719 278.347656 L 708.964844 276.222656 Z M 710.03125 275.449219 "/></g><path style=" stroke:none;fill-rule:nonzero;fill:#6ce5e8;fill-opacity:1;" d="M 621.382812 178.140625 C 621.382812 178.832031 621.3125 179.515625 621.179688 180.191406 C 621.042969 180.871094 620.84375 181.527344 620.582031 182.164062 C 620.316406 182.804688 619.992188 183.410156 619.609375 183.984375 C 619.222656 184.558594 618.789062 185.089844 618.300781 185.578125 C 617.8125 186.066406 617.277344 186.503906 616.703125 186.886719 C 616.128906 187.273438 615.523438 187.597656 614.886719 187.859375 C 614.246094 188.125 613.589844 188.324219 612.910156 188.460938 C 612.234375 188.59375 611.550781 188.660156 610.859375 188.660156 C 610.167969 188.660156 609.484375 188.59375 608.804688 188.460938 C 608.128906 188.324219 607.46875 188.125 606.832031 187.859375 C 606.195312 187.597656 605.585938 187.273438 605.011719 186.886719 C 604.4375 186.503906 603.90625 186.066406 603.417969 185.578125 C 602.929688 185.089844 602.492188 184.558594 602.109375 183.984375 C 601.726562 183.410156 601.402344 182.804688 601.136719 182.164062 C 600.875 181.527344 600.671875 180.871094 600.539062 180.191406 C 600.402344 179.515625 600.335938 178.832031 600.335938 178.140625 C 600.335938 177.449219 600.402344 176.765625 600.539062 176.085938 C 600.671875 175.410156 600.875 174.75 601.136719 174.113281 C 601.402344 173.472656 601.726562 172.867188 602.109375 172.292969 C 602.492188 171.71875 602.929688 171.1875 603.417969 170.699219 C 603.90625 170.210938 604.4375 169.773438 605.011719 169.390625 C 605.585938 169.007812 606.195312 168.683594 606.832031 168.417969 C 607.46875 168.152344 608.128906 167.953125 608.804688 167.820312 C 609.484375 167.683594 610.167969 167.617188 610.859375 167.617188 C 611.550781 167.617188 612.234375 167.683594 612.910156 167.820312 C 613.589844 167.953125 614.246094 168.152344 614.886719 168.417969 C 615.523438 168.683594 616.128906 169.007812 616.703125 169.390625 C 617.277344 169.773438 617.8125 170.210938 618.300781 170.699219 C 618.789062 171.1875 619.222656 171.71875 619.609375 172.292969 C 619.992188 172.867188 620.316406 173.472656 620.582031 174.113281 C 620.84375 174.75 621.042969 175.410156 621.179688 176.085938 C 621.3125 176.765625 621.382812 177.449219 621.382812 178.140625 Z M 621.382812 178.140625 "/><g style="fill:#000000;fill-opacity:1;"><g transform="translate(631.903497, 186.031021)"><path style="stroke:none" d="M 6.5625 0.21875 C 5.625 0.21875 4.773438 0.0859375 4.015625 -0.171875 C 3.265625 -0.429688 2.640625 -0.769531 2.140625 -1.1875 C 1.640625 -1.601562 1.269531 -2.0625 1.03125 -2.5625 L 2 -3.734375 L 2.25 -3.734375 C 3.175781 -2.160156 4.613281 -1.375 6.5625 -1.375 C 7.695312 -1.375 8.539062 -1.609375 9.09375 -2.078125 C 9.644531 -2.554688 9.921875 -3.21875 9.921875 -4.0625 C 9.921875 -4.550781 9.828125 -4.96875 9.640625 -5.3125 C 9.460938 -5.65625 9.164062 -5.945312 8.75 -6.1875 C 8.332031 -6.4375 7.765625 -6.648438 7.046875 -6.828125 L 5.28125 -7.25 C 3.96875 -7.570312 3 -8.078125 2.375 -8.765625 C 1.757812 -9.453125 1.453125 -10.320312 1.453125 -11.375 C 1.453125 -12.125 1.644531 -12.789062 2.03125 -13.375 C 2.414062 -13.957031 2.976562 -14.410156 3.71875 -14.734375 C 4.457031 -15.066406 5.34375 -15.234375 6.375 -15.234375 C 7.5 -15.234375 8.453125 -15.070312 9.234375 -14.75 C 10.015625 -14.4375 10.632812 -13.960938 11.09375 -13.328125 L 10.234375 -12.171875 L 9.984375 -12.171875 C 9.546875 -12.691406 9.03125 -13.078125 8.4375 -13.328125 C 7.851562 -13.578125 7.164062 -13.703125 6.375 -13.703125 C 5.332031 -13.703125 4.546875 -13.5 4.015625 -13.09375 C 3.484375 -12.6875 3.21875 -12.128906 3.21875 -11.421875 C 3.21875 -10.742188 3.410156 -10.203125 3.796875 -9.796875 C 4.191406 -9.398438 4.851562 -9.09375 5.78125 -8.875 L 7.578125 -8.4375 C 9.035156 -8.09375 10.085938 -7.566406 10.734375 -6.859375 C 11.390625 -6.148438 11.71875 -5.242188 11.71875 -4.140625 C 11.71875 -3.296875 11.523438 -2.546875 11.140625 -1.890625 C 10.765625 -1.234375 10.191406 -0.71875 9.421875 -0.34375 C 8.648438 0.03125 7.695312 0.21875 6.5625 0.21875 Z M 6.5625 0.21875 "/></g><g transform="translate(644.778927, 186.031021)"><path style="stroke:none" d="M 10.796875 -5.28125 L 3.015625 -5.28125 C 3.054688 -3.90625 3.382812 -2.894531 4 -2.25 C 4.613281 -1.601562 5.457031 -1.28125 6.53125 -1.28125 C 7.332031 -1.28125 7.976562 -1.421875 8.46875 -1.703125 C 8.96875 -1.992188 9.359375 -2.453125 9.640625 -3.078125 L 9.859375 -3.078125 L 10.9375 -2.421875 C 10.613281 -1.597656 10.085938 -0.953125 9.359375 -0.484375 C 8.640625 -0.015625 7.695312 0.21875 6.53125 0.21875 C 5.425781 0.21875 4.476562 0.00390625 3.6875 -0.421875 C 2.90625 -0.859375 2.300781 -1.515625 1.875 -2.390625 C 1.457031 -3.265625 1.25 -4.351562 1.25 -5.65625 C 1.25 -6.945312 1.472656 -8.035156 1.921875 -8.921875 C 2.367188 -9.804688 2.976562 -10.460938 3.75 -10.890625 C 4.53125 -11.328125 5.421875 -11.546875 6.421875 -11.546875 C 7.878906 -11.546875 9.015625 -11.132812 9.828125 -10.3125 C 10.640625 -9.5 11.050781 -8.289062 11.0625 -6.6875 C 11.0625 -6.050781 11.046875 -5.625 11.015625 -5.40625 Z M 9.40625 -6.6875 C 9.375 -7.882812 9.101562 -8.757812 8.59375 -9.3125 C 8.09375 -9.863281 7.367188 -10.140625 6.421875 -10.140625 C 5.429688 -10.140625 4.648438 -9.863281 4.078125 -9.3125 C 3.515625 -8.757812 3.171875 -7.882812 3.046875 -6.6875 Z M 9.40625 -6.6875 "/></g><g transform="translate(656.86313, 186.031021)"><path style="stroke:none" d="M 4.515625 0.21875 C 3.710938 0.21875 3.082031 -0.0078125 2.625 -0.46875 C 2.164062 -0.925781 1.9375 -1.601562 1.9375 -2.5 L 1.9375 -15.890625 L 3.609375 -15.890625 L 3.609375 -2.625 C 3.609375 -2.144531 3.695312 -1.800781 3.875 -1.59375 C 4.0625 -1.382812 4.347656 -1.28125 4.734375 -1.28125 C 4.960938 -1.28125 5.195312 -1.316406 5.4375 -1.390625 L 5.578125 -1.359375 L 5.78125 -0.046875 C 5.65625 0.0351562 5.476562 0.0976562 5.25 0.140625 C 5.019531 0.191406 4.773438 0.21875 4.515625 0.21875 Z M 4.515625 0.21875 "/></g><g transform="translate(663.028539, 186.031021)"><path style="stroke:none" d="M 2.53125 0 L 2.53125 -9.96875 L 0.5625 -9.96875 L 0.5625 -11.34375 L 2.53125 -11.34375 C 2.40625 -11.832031 2.34375 -12.300781 2.34375 -12.75 C 2.34375 -13.488281 2.5 -14.109375 2.8125 -14.609375 C 3.125 -15.109375 3.554688 -15.484375 4.109375 -15.734375 C 4.660156 -15.984375 5.300781 -16.109375 6.03125 -16.109375 C 7.164062 -16.109375 8.03125 -15.863281 8.625 -15.375 L 7.984375 -14.1875 L 7.765625 -14.15625 C 7.316406 -14.507812 6.738281 -14.6875 6.03125 -14.6875 C 5.363281 -14.6875 4.859375 -14.515625 4.515625 -14.171875 C 4.179688 -13.828125 4.015625 -13.34375 4.015625 -12.71875 C 4.015625 -12.320312 4.078125 -11.863281 4.203125 -11.34375 L 7.8125 -11.34375 L 7.8125 -9.96875 L 4.203125 -9.96875 L 4.203125 0 Z M 2.53125 0 "/></g><g transform="translate(671.105226, 186.031021)"><path style="stroke:none" d=""/></g><g transform="translate(676.263618, 186.031021)"><path style="stroke:none" d="M 13.53125 0 L 11.640625 0 L 10.25 -4.125 L 3.84375 -4.125 L 2.453125 0 L 0.59375 0 L 5.84375 -15.03125 L 8.28125 -15.03125 Z M 6.921875 -13.203125 L 4.34375 -5.59375 L 9.75 -5.59375 L 7.171875 -13.203125 Z M 6.921875 -13.203125 "/></g><g transform="translate(690.382406, 186.031021)"><path style="stroke:none" d="M 5.171875 0.21875 C 4.453125 0.21875 3.789062 0.125 3.1875 -0.0625 C 2.582031 -0.25 2.070312 -0.507812 1.65625 -0.84375 C 1.238281 -1.175781 0.941406 -1.546875 0.765625 -1.953125 L 1.75 -2.984375 L 1.96875 -2.984375 C 2.34375 -2.421875 2.789062 -1.992188 3.3125 -1.703125 C 3.832031 -1.421875 4.453125 -1.28125 5.171875 -1.28125 C 6.003906 -1.28125 6.640625 -1.441406 7.078125 -1.765625 C 7.515625 -2.097656 7.734375 -2.554688 7.734375 -3.140625 C 7.734375 -3.578125 7.597656 -3.941406 7.328125 -4.234375 C 7.066406 -4.523438 6.640625 -4.742188 6.046875 -4.890625 L 4.140625 -5.359375 C 3.117188 -5.609375 2.375 -6 1.90625 -6.53125 C 1.4375 -7.070312 1.203125 -7.734375 1.203125 -8.515625 C 1.203125 -9.128906 1.359375 -9.664062 1.671875 -10.125 C 1.984375 -10.582031 2.4375 -10.929688 3.03125 -11.171875 C 3.625 -11.421875 4.332031 -11.546875 5.15625 -11.546875 C 6.1875 -11.546875 7.003906 -11.398438 7.609375 -11.109375 C 8.210938 -10.816406 8.679688 -10.410156 9.015625 -9.890625 L 8.0625 -8.96875 L 7.859375 -8.96875 C 7.492188 -9.382812 7.097656 -9.6875 6.671875 -9.875 C 6.242188 -10.0625 5.738281 -10.15625 5.15625 -10.15625 C 4.40625 -10.15625 3.832031 -10.019531 3.4375 -9.75 C 3.039062 -9.488281 2.84375 -9.101562 2.84375 -8.59375 C 2.84375 -8.132812 2.976562 -7.765625 3.25 -7.484375 C 3.53125 -7.203125 4.023438 -6.972656 4.734375 -6.796875 L 6.609375 -6.34375 C 7.597656 -6.113281 8.3125 -5.726562 8.75 -5.1875 C 9.1875 -4.644531 9.40625 -3.96875 9.40625 -3.15625 C 9.40625 -2.488281 9.242188 -1.898438 8.921875 -1.390625 C 8.609375 -0.890625 8.132812 -0.492188 7.5 -0.203125 C 6.863281 0.078125 6.085938 0.21875 5.171875 0.21875 Z M 5.171875 0.21875 "/></g><g transform="translate(700.863603, 186.031021)"><path style="stroke:none" d="M 5.171875 0.21875 C 4.453125 0.21875 3.789062 0.125 3.1875 -0.0625 C 2.582031 -0.25 2.070312 -0.507812 1.65625 -0.84375 C 1.238281 -1.175781 0.941406 -1.546875 0.765625 -1.953125 L 1.75 -2.984375 L 1.96875 -2.984375 C 2.34375 -2.421875 2.789062 -1.992188 3.3125 -1.703125 C 3.832031 -1.421875 4.453125 -1.28125 5.171875 -1.28125 C 6.003906 -1.28125 6.640625 -1.441406 7.078125 -1.765625 C 7.515625 -2.097656 7.734375 -2.554688 7.734375 -3.140625 C 7.734375 -3.578125 7.597656 -3.941406 7.328125 -4.234375 C 7.066406 -4.523438 6.640625 -4.742188 6.046875 -4.890625 L 4.140625 -5.359375 C 3.117188 -5.609375 2.375 -6 1.90625 -6.53125 C 1.4375 -7.070312 1.203125 -7.734375 1.203125 -8.515625 C 1.203125 -9.128906 1.359375 -9.664062 1.671875 -10.125 C 1.984375 -10.582031 2.4375 -10.929688 3.03125 -11.171875 C 3.625 -11.421875 4.332031 -11.546875 5.15625 -11.546875 C 6.1875 -11.546875 7.003906 -11.398438 7.609375 -11.109375 C 8.210938 -10.816406 8.679688 -10.410156 9.015625 -9.890625 L 8.0625 -8.96875 L 7.859375 -8.96875 C 7.492188 -9.382812 7.097656 -9.6875 6.671875 -9.875 C 6.242188 -10.0625 5.738281 -10.15625 5.15625 -10.15625 C 4.40625 -10.15625 3.832031 -10.019531 3.4375 -9.75 C 3.039062 -9.488281 2.84375 -9.101562 2.84375 -8.59375 C 2.84375 -8.132812 2.976562 -7.765625 3.25 -7.484375 C 3.53125 -7.203125 4.023438 -6.972656 4.734375 -6.796875 L 6.609375 -6.34375 C 7.597656 -6.113281 8.3125 -5.726562 8.75 -5.1875 C 9.1875 -4.644531 9.40625 -3.96875 9.40625 -3.15625 C 9.40625 -2.488281 9.242188 -1.898438 8.921875 -1.390625 C 8.609375 -0.890625 8.132812 -0.492188 7.5 -0.203125 C 6.863281 0.078125 6.085938 0.21875 5.171875 0.21875 Z M 5.171875 0.21875 "/></g><g transform="translate(711.344799, 186.031021)"><path style="stroke:none" d="M 10.796875 -5.28125 L 3.015625 -5.28125 C 3.054688 -3.90625 3.382812 -2.894531 4 -2.25 C 4.613281 -1.601562 5.457031 -1.28125 6.53125 -1.28125 C 7.332031 -1.28125 7.976562 -1.421875 8.46875 -1.703125 C 8.96875 -1.992188 9.359375 -2.453125 9.640625 -3.078125 L 9.859375 -3.078125 L 10.9375 -2.421875 C 10.613281 -1.597656 10.085938 -0.953125 9.359375 -0.484375 C 8.640625 -0.015625 7.695312 0.21875 6.53125 0.21875 C 5.425781 0.21875 4.476562 0.00390625 3.6875 -0.421875 C 2.90625 -0.859375 2.300781 -1.515625 1.875 -2.390625 C 1.457031 -3.265625 1.25 -4.351562 1.25 -5.65625 C 1.25 -6.945312 1.472656 -8.035156 1.921875 -8.921875 C 2.367188 -9.804688 2.976562 -10.460938 3.75 -10.890625 C 4.53125 -11.328125 5.421875 -11.546875 6.421875 -11.546875 C 7.878906 -11.546875 9.015625 -11.132812 9.828125 -10.3125 C 10.640625 -9.5 11.050781 -8.289062 11.0625 -6.6875 C 11.0625 -6.050781 11.046875 -5.625 11.015625 -5.40625 Z M 9.40625 -6.6875 C 9.375 -7.882812 9.101562 -8.757812 8.59375 -9.3125 C 8.09375 -9.863281 7.367188 -10.140625 6.421875 -10.140625 C 5.429688 -10.140625 4.648438 -9.863281 4.078125 -9.3125 C 3.515625 -8.757812 3.171875 -7.882812 3.046875 -6.6875 Z M 9.40625 -6.6875 "/></g><g transform="translate(723.429002, 186.031021)"><path style="stroke:none" d="M 5.171875 0.21875 C 4.453125 0.21875 3.789062 0.125 3.1875 -0.0625 C 2.582031 -0.25 2.070312 -0.507812 1.65625 -0.84375 C 1.238281 -1.175781 0.941406 -1.546875 0.765625 -1.953125 L 1.75 -2.984375 L 1.96875 -2.984375 C 2.34375 -2.421875 2.789062 -1.992188 3.3125 -1.703125 C 3.832031 -1.421875 4.453125 -1.28125 5.171875 -1.28125 C 6.003906 -1.28125 6.640625 -1.441406 7.078125 -1.765625 C 7.515625 -2.097656 7.734375 -2.554688 7.734375 -3.140625 C 7.734375 -3.578125 7.597656 -3.941406 7.328125 -4.234375 C 7.066406 -4.523438 6.640625 -4.742188 6.046875 -4.890625 L 4.140625 -5.359375 C 3.117188 -5.609375 2.375 -6 1.90625 -6.53125 C 1.4375 -7.070312 1.203125 -7.734375 1.203125 -8.515625 C 1.203125 -9.128906 1.359375 -9.664062 1.671875 -10.125 C 1.984375 -10.582031 2.4375 -10.929688 3.03125 -11.171875 C 3.625 -11.421875 4.332031 -11.546875 5.15625 -11.546875 C 6.1875 -11.546875 7.003906 -11.398438 7.609375 -11.109375 C 8.210938 -10.816406 8.679688 -10.410156 9.015625 -9.890625 L 8.0625 -8.96875 L 7.859375 -8.96875 C 7.492188 -9.382812 7.097656 -9.6875 6.671875 -9.875 C 6.242188 -10.0625 5.738281 -10.15625 5.15625 -10.15625 C 4.40625 -10.15625 3.832031 -10.019531 3.4375 -9.75 C 3.039062 -9.488281 2.84375 -9.101562 2.84375 -8.59375 C 2.84375 -8.132812 2.976562 -7.765625 3.25 -7.484375 C 3.53125 -7.203125 4.023438 -6.972656 4.734375 -6.796875 L 6.609375 -6.34375 C 7.597656 -6.113281 8.3125 -5.726562 8.75 -5.1875 C 9.1875 -4.644531 9.40625 -3.96875 9.40625 -3.15625 C 9.40625 -2.488281 9.242188 -1.898438 8.921875 -1.390625 C 8.609375 -0.890625 8.132812 -0.492188 7.5 -0.203125 C 6.863281 0.078125 6.085938 0.21875 5.171875 0.21875 Z M 5.171875 0.21875 "/></g><g transform="translate(733.910198, 186.031021)"><path style="stroke:none" d="M 5.171875 0.21875 C 4.453125 0.21875 3.789062 0.125 3.1875 -0.0625 C 2.582031 -0.25 2.070312 -0.507812 1.65625 -0.84375 C 1.238281 -1.175781 0.941406 -1.546875 0.765625 -1.953125 L 1.75 -2.984375 L 1.96875 -2.984375 C 2.34375 -2.421875 2.789062 -1.992188 3.3125 -1.703125 C 3.832031 -1.421875 4.453125 -1.28125 5.171875 -1.28125 C 6.003906 -1.28125 6.640625 -1.441406 7.078125 -1.765625 C 7.515625 -2.097656 7.734375 -2.554688 7.734375 -3.140625 C 7.734375 -3.578125 7.597656 -3.941406 7.328125 -4.234375 C 7.066406 -4.523438 6.640625 -4.742188 6.046875 -4.890625 L 4.140625 -5.359375 C 3.117188 -5.609375 2.375 -6 1.90625 -6.53125 C 1.4375 -7.070312 1.203125 -7.734375 1.203125 -8.515625 C 1.203125 -9.128906 1.359375 -9.664062 1.671875 -10.125 C 1.984375 -10.582031 2.4375 -10.929688 3.03125 -11.171875 C 3.625 -11.421875 4.332031 -11.546875 5.15625 -11.546875 C 6.1875 -11.546875 7.003906 -11.398438 7.609375 -11.109375 C 8.210938 -10.816406 8.679688 -10.410156 9.015625 -9.890625 L 8.0625 -8.96875 L 7.859375 -8.96875 C 7.492188 -9.382812 7.097656 -9.6875 6.671875 -9.875 C 6.242188 -10.0625 5.738281 -10.15625 5.15625 -10.15625 C 4.40625 -10.15625 3.832031 -10.019531 3.4375 -9.75 C 3.039062 -9.488281 2.84375 -9.101562 2.84375 -8.59375 C 2.84375 -8.132812 2.976562 -7.765625 3.25 -7.484375 C 3.53125 -7.203125 4.023438 -6.972656 4.734375 -6.796875 L 6.609375 -6.34375 C 7.597656 -6.113281 8.3125 -5.726562 8.75 -5.1875 C 9.1875 -4.644531 9.40625 -3.96875 9.40625 -3.15625 C 9.40625 -2.488281 9.242188 -1.898438 8.921875 -1.390625 C 8.609375 -0.890625 8.132812 -0.492188 7.5 -0.203125 C 6.863281 0.078125 6.085938 0.21875 5.171875 0.21875 Z M 5.171875 0.21875 "/></g><g transform="translate(744.391394, 186.031021)"><path style="stroke:none" d="M 1.96875 0 L 1.96875 -11.328125 L 3.5625 -11.328125 L 3.5625 -9.65625 L 3.78125 -9.625 C 4.164062 -10.257812 4.628906 -10.738281 5.171875 -11.0625 C 5.710938 -11.382812 6.363281 -11.546875 7.125 -11.546875 C 8.007812 -11.546875 8.691406 -11.378906 9.171875 -11.046875 C 9.648438 -10.710938 10.019531 -10.175781 10.28125 -9.4375 L 10.5 -9.4375 C 10.894531 -10.132812 11.378906 -10.660156 11.953125 -11.015625 C 12.523438 -11.367188 13.226562 -11.546875 14.0625 -11.546875 C 15.226562 -11.546875 16.09375 -11.226562 16.65625 -10.59375 C 17.226562 -9.96875 17.515625 -9.015625 17.515625 -7.734375 L 17.515625 0 L 15.84375 0 L 15.84375 -7.6875 C 15.84375 -8.507812 15.671875 -9.113281 15.328125 -9.5 C 14.984375 -9.894531 14.425781 -10.09375 13.65625 -10.09375 C 12.75 -10.09375 12.007812 -9.765625 11.4375 -9.109375 C 10.863281 -8.453125 10.578125 -7.367188 10.578125 -5.859375 L 10.578125 0 L 8.90625 0 L 8.90625 -7.6875 C 8.90625 -8.507812 8.734375 -9.113281 8.390625 -9.5 C 8.046875 -9.894531 7.488281 -10.09375 6.71875 -10.09375 C 5.8125 -10.09375 5.070312 -9.773438 4.5 -9.140625 C 3.925781 -8.503906 3.640625 -7.46875 3.640625 -6.03125 L 3.640625 0 Z M 1.96875 0 "/></g><g transform="translate(763.709677, 186.031021)"><path style="stroke:none" d="M 10.796875 -5.28125 L 3.015625 -5.28125 C 3.054688 -3.90625 3.382812 -2.894531 4 -2.25 C 4.613281 -1.601562 5.457031 -1.28125 6.53125 -1.28125 C 7.332031 -1.28125 7.976562 -1.421875 8.46875 -1.703125 C 8.96875 -1.992188 9.359375 -2.453125 9.640625 -3.078125 L 9.859375 -3.078125 L 10.9375 -2.421875 C 10.613281 -1.597656 10.085938 -0.953125 9.359375 -0.484375 C 8.640625 -0.015625 7.695312 0.21875 6.53125 0.21875 C 5.425781 0.21875 4.476562 0.00390625 3.6875 -0.421875 C 2.90625 -0.859375 2.300781 -1.515625 1.875 -2.390625 C 1.457031 -3.265625 1.25 -4.351562 1.25 -5.65625 C 1.25 -6.945312 1.472656 -8.035156 1.921875 -8.921875 C 2.367188 -9.804688 2.976562 -10.460938 3.75 -10.890625 C 4.53125 -11.328125 5.421875 -11.546875 6.421875 -11.546875 C 7.878906 -11.546875 9.015625 -11.132812 9.828125 -10.3125 C 10.640625 -9.5 11.050781 -8.289062 11.0625 -6.6875 C 11.0625 -6.050781 11.046875 -5.625 11.015625 -5.40625 Z M 9.40625 -6.6875 C 9.375 -7.882812 9.101562 -8.757812 8.59375 -9.3125 C 8.09375 -9.863281 7.367188 -10.140625 6.421875 -10.140625 C 5.429688 -10.140625 4.648438 -9.863281 4.078125 -9.3125 C 3.515625 -8.757812 3.171875 -7.882812 3.046875 -6.6875 Z M 9.40625 -6.6875 "/></g><g transform="translate(775.79388, 186.031021)"><path style="stroke:none" d="M 1.96875 0 L 1.96875 -11.328125 L 3.5625 -11.328125 L 3.5625 -9.5625 L 3.78125 -9.5 C 4.15625 -10.164062 4.632812 -10.671875 5.21875 -11.015625 C 5.8125 -11.367188 6.53125 -11.546875 7.375 -11.546875 C 8.726562 -11.546875 9.710938 -11.195312 10.328125 -10.5 C 10.941406 -9.8125 11.25 -8.742188 11.25 -7.296875 L 11.25 0 L 9.578125 0 L 9.578125 -7.25 C 9.578125 -7.9375 9.488281 -8.488281 9.3125 -8.90625 C 9.132812 -9.320312 8.863281 -9.625 8.5 -9.8125 C 8.132812 -10 7.65625 -10.09375 7.0625 -10.09375 C 6.039062 -10.09375 5.210938 -9.753906 4.578125 -9.078125 C 3.953125 -8.398438 3.640625 -7.3125 3.640625 -5.8125 L 3.640625 0 Z M 1.96875 0 "/></g></g><g style="fill:#000000;fill-opacity:1;"><g transform="translate(788.761792, 186.031021)"><path style="stroke:none" d="M 7.671875 -1.796875 L 8.203125 -0.59375 C 7.929688 -0.320312 7.578125 -0.117188 7.140625 0.015625 C 6.710938 0.148438 6.242188 0.21875 5.734375 0.21875 C 3.566406 0.21875 2.484375 -0.878906 2.484375 -3.078125 L 2.484375 -9.96875 L 0.515625 -9.96875 L 0.515625 -11.34375 L 2.484375 -11.34375 L 2.484375 -13.734375 L 4.15625 -14.015625 L 4.15625 -11.34375 L 7.8125 -11.34375 L 7.8125 -9.96875 L 4.15625 -9.96875 L 4.15625 -3.234375 C 4.15625 -1.929688 4.722656 -1.28125 5.859375 -1.28125 C 6.472656 -1.28125 7.003906 -1.453125 7.453125 -1.796875 Z M 7.671875 -1.796875 "/></g></g><path style=" stroke:none;fill-rule:nonzero;fill:#2d8bba;fill-opacity:1;" d="M 621.382812 230.75 C 621.382812 231.441406 621.3125 232.125 621.179688 232.804688 C 621.042969 233.480469 620.84375 234.140625 620.582031 234.777344 C 620.316406 235.414062 619.992188 236.023438 619.609375 236.597656 C 619.222656 237.171875 618.789062 237.703125 618.300781 238.191406 C 617.8125 238.679688 617.277344 239.117188 616.703125 239.5 C 616.128906 239.882812 615.523438 240.207031 614.886719 240.472656 C 614.246094 240.738281 613.589844 240.9375 612.910156 241.070312 C 612.234375 241.207031 611.550781 241.273438 610.859375 241.273438 C 610.167969 241.273438 609.484375 241.207031 608.804688 241.070312 C 608.128906 240.9375 607.46875 240.738281 606.832031 240.472656 C 606.195312 240.207031 605.585938 239.882812 605.011719 239.5 C 604.4375 239.117188 603.90625 238.679688 603.417969 238.191406 C 602.929688 237.703125 602.492188 237.171875 602.109375 236.597656 C 601.726562 236.023438 601.402344 235.414062 601.136719 234.777344 C 600.875 234.140625 600.671875 233.480469 600.539062 232.804688 C 600.402344 232.125 600.335938 231.441406 600.335938 230.75 C 600.335938 230.058594 600.402344 229.375 600.539062 228.699219 C 600.671875 228.019531 600.875 227.363281 601.136719 226.722656 C 601.402344 226.085938 601.726562 225.480469 602.109375 224.90625 C 602.492188 224.332031 602.929688 223.800781 603.417969 223.308594 C 603.90625 222.820312 604.4375 222.386719 605.011719 222 C 605.585938 221.617188 606.195312 221.292969 606.832031 221.03125 C 607.46875 220.765625 608.128906 220.566406 608.804688 220.429688 C 609.484375 220.296875 610.167969 220.226562 610.859375 220.226562 C 611.550781 220.226562 612.234375 220.296875 612.910156 220.429688 C 613.589844 220.566406 614.246094 220.765625 614.886719 221.03125 C 615.523438 221.292969 616.128906 221.617188 616.703125 222 C 617.277344 222.386719 617.8125 222.820312 618.300781 223.308594 C 618.789062 223.800781 619.222656 224.332031 619.609375 224.90625 C 619.992188 225.480469 620.316406 226.085938 620.582031 226.722656 C 620.84375 227.363281 621.042969 228.019531 621.179688 228.699219 C 621.3125 229.375 621.382812 230.058594 621.382812 230.75 Z M 621.382812 230.75 "/><g style="fill:#000000;fill-opacity:1;"><g transform="translate(630.588209, 238.642508)"><path style="stroke:none" d="M 8.296875 0.21875 C 6.984375 0.21875 5.8125 -0.0820312 4.78125 -0.6875 C 3.757812 -1.289062 2.957031 -2.171875 2.375 -3.328125 C 1.789062 -4.492188 1.5 -5.890625 1.5 -7.515625 C 1.5 -9.140625 1.789062 -10.53125 2.375 -11.6875 C 2.957031 -12.851562 3.757812 -13.734375 4.78125 -14.328125 C 5.8125 -14.929688 6.984375 -15.234375 8.296875 -15.234375 C 9.703125 -15.234375 10.867188 -14.96875 11.796875 -14.4375 C 12.734375 -13.90625 13.410156 -13.109375 13.828125 -12.046875 L 12.6875 -11.296875 L 12.4375 -11.296875 C 12.019531 -12.148438 11.484375 -12.753906 10.828125 -13.109375 C 10.171875 -13.472656 9.328125 -13.65625 8.296875 -13.65625 C 7.359375 -13.65625 6.519531 -13.441406 5.78125 -13.015625 C 5.050781 -12.597656 4.46875 -11.929688 4.03125 -11.015625 C 3.601562 -10.109375 3.390625 -8.941406 3.390625 -7.515625 C 3.390625 -6.085938 3.601562 -4.914062 4.03125 -4 C 4.46875 -3.09375 5.050781 -2.425781 5.78125 -2 C 6.519531 -1.582031 7.359375 -1.375 8.296875 -1.375 C 9.390625 -1.375 10.28125 -1.617188 10.96875 -2.109375 C 11.664062 -2.597656 12.179688 -3.390625 12.515625 -4.484375 L 12.78125 -4.484375 L 13.953125 -3.90625 C 13.597656 -2.570312 12.9375 -1.550781 11.96875 -0.84375 C 11.007812 -0.132812 9.785156 0.21875 8.296875 0.21875 Z M 8.296875 0.21875 "/></g><g transform="translate(645.323538, 238.642508)"><path style="stroke:none" d="M 6.5 0.21875 C 5.4375 0.21875 4.507812 -0.00390625 3.71875 -0.453125 C 2.925781 -0.910156 2.316406 -1.578125 1.890625 -2.453125 C 1.460938 -3.335938 1.25 -4.40625 1.25 -5.65625 C 1.25 -6.914062 1.460938 -7.984375 1.890625 -8.859375 C 2.316406 -9.742188 2.925781 -10.410156 3.71875 -10.859375 C 4.507812 -11.316406 5.4375 -11.546875 6.5 -11.546875 C 7.570312 -11.546875 8.503906 -11.316406 9.296875 -10.859375 C 10.085938 -10.410156 10.695312 -9.742188 11.125 -8.859375 C 11.550781 -7.984375 11.765625 -6.914062 11.765625 -5.65625 C 11.765625 -4.40625 11.550781 -3.335938 11.125 -2.453125 C 10.695312 -1.578125 10.085938 -0.910156 9.296875 -0.453125 C 8.503906 -0.00390625 7.570312 0.21875 6.5 0.21875 Z M 6.5 -1.28125 C 7.632812 -1.28125 8.5 -1.632812 9.09375 -2.34375 C 9.695312 -3.0625 10 -4.164062 10 -5.65625 C 10 -7.15625 9.695312 -8.257812 9.09375 -8.96875 C 8.5 -9.6875 7.632812 -10.046875 6.5 -10.046875 C 5.375 -10.046875 4.507812 -9.6875 3.90625 -8.96875 C 3.300781 -8.257812 3 -7.15625 3 -5.65625 C 3 -4.164062 3.300781 -3.0625 3.90625 -2.34375 C 4.507812 -1.632812 5.375 -1.28125 6.5 -1.28125 Z M 6.5 -1.28125 "/></g><g transform="translate(658.332552, 238.642508)"><path style="stroke:none" d="M 4.671875 0.21875 C 3.554688 0.21875 2.6875 -0.0703125 2.0625 -0.65625 C 1.4375 -1.238281 1.125 -2.070312 1.125 -3.15625 C 1.125 -3.820312 1.257812 -4.382812 1.53125 -4.84375 C 1.8125 -5.3125 2.242188 -5.691406 2.828125 -5.984375 C 3.410156 -6.273438 4.171875 -6.5 5.109375 -6.65625 C 5.929688 -6.789062 6.554688 -6.941406 6.984375 -7.109375 C 7.410156 -7.285156 7.695312 -7.476562 7.84375 -7.6875 C 7.988281 -7.90625 8.0625 -8.175781 8.0625 -8.5 C 8.0625 -9.007812 7.882812 -9.398438 7.53125 -9.671875 C 7.1875 -9.953125 6.625 -10.09375 5.84375 -10.09375 C 5.101562 -10.09375 4.472656 -9.945312 3.953125 -9.65625 C 3.429688 -9.375 2.945312 -8.953125 2.5 -8.390625 L 2.296875 -8.390625 L 1.484375 -9.5625 C 1.960938 -10.164062 2.570312 -10.644531 3.3125 -11 C 4.050781 -11.363281 4.894531 -11.546875 5.84375 -11.546875 C 7.175781 -11.546875 8.160156 -11.253906 8.796875 -10.671875 C 9.429688 -10.085938 9.75 -9.273438 9.75 -8.234375 L 9.75 -2.234375 C 9.75 -1.597656 10.015625 -1.28125 10.546875 -1.28125 C 10.722656 -1.28125 10.894531 -1.3125 11.0625 -1.375 L 11.203125 -1.34375 L 11.390625 -0.171875 C 11.273438 -0.0859375 11.113281 -0.0234375 10.90625 0.015625 C 10.707031 0.0546875 10.5 0.078125 10.28125 0.078125 C 9.664062 0.078125 9.195312 -0.0546875 8.875 -0.328125 C 8.550781 -0.597656 8.347656 -1.003906 8.265625 -1.546875 L 8.046875 -1.5625 C 7.722656 -0.96875 7.285156 -0.519531 6.734375 -0.21875 C 6.191406 0.0703125 5.503906 0.21875 4.671875 0.21875 Z M 5.046875 -1.125 C 5.671875 -1.125 6.210938 -1.269531 6.671875 -1.5625 C 7.140625 -1.851562 7.5 -2.257812 7.75 -2.78125 C 8 -3.3125 8.125 -3.921875 8.125 -4.609375 L 8.125 -6.046875 L 7.921875 -6.09375 C 7.671875 -5.914062 7.363281 -5.765625 7 -5.640625 C 6.632812 -5.523438 6.128906 -5.421875 5.484375 -5.328125 C 4.816406 -5.234375 4.289062 -5.09375 3.90625 -4.90625 C 3.519531 -4.726562 3.242188 -4.492188 3.078125 -4.203125 C 2.921875 -3.921875 2.84375 -3.570312 2.84375 -3.15625 C 2.84375 -2.488281 3.035156 -1.984375 3.421875 -1.640625 C 3.816406 -1.296875 4.359375 -1.125 5.046875 -1.125 Z M 5.046875 -1.125 "/></g><g transform="translate(670.057106, 238.642508)"><path style="stroke:none" d="M 6.5 0.21875 C 5.5 0.21875 4.601562 -0.0078125 3.8125 -0.46875 C 3.019531 -0.925781 2.394531 -1.597656 1.9375 -2.484375 C 1.476562 -3.367188 1.25 -4.425781 1.25 -5.65625 C 1.25 -6.894531 1.476562 -7.957031 1.9375 -8.84375 C 2.394531 -9.738281 3.019531 -10.410156 3.8125 -10.859375 C 4.601562 -11.316406 5.5 -11.546875 6.5 -11.546875 C 7.695312 -11.546875 8.648438 -11.316406 9.359375 -10.859375 C 10.078125 -10.410156 10.59375 -9.8125 10.90625 -9.0625 L 9.765625 -8.234375 L 9.5625 -8.234375 C 9.25 -8.859375 8.847656 -9.316406 8.359375 -9.609375 C 7.878906 -9.898438 7.257812 -10.046875 6.5 -10.046875 C 5.800781 -10.046875 5.1875 -9.878906 4.65625 -9.546875 C 4.132812 -9.222656 3.726562 -8.734375 3.4375 -8.078125 C 3.144531 -7.421875 3 -6.613281 3 -5.65625 C 3 -4.71875 3.144531 -3.921875 3.4375 -3.265625 C 3.738281 -2.609375 4.148438 -2.113281 4.671875 -1.78125 C 5.191406 -1.445312 5.800781 -1.28125 6.5 -1.28125 C 7.289062 -1.28125 7.941406 -1.457031 8.453125 -1.8125 C 8.972656 -2.175781 9.382812 -2.738281 9.6875 -3.5 L 9.890625 -3.5 L 11 -2.859375 C 10.695312 -1.898438 10.164062 -1.144531 9.40625 -0.59375 C 8.65625 -0.0507812 7.6875 0.21875 6.5 0.21875 Z M 6.5 0.21875 "/></g><g transform="translate(681.740557, 238.642508)"><path style="stroke:none" d="M 1.96875 0 L 1.96875 -15.890625 L 3.640625 -15.890625 L 3.640625 -9.71875 L 3.859375 -9.6875 C 4.671875 -10.925781 5.84375 -11.546875 7.375 -11.546875 C 8.726562 -11.546875 9.710938 -11.195312 10.328125 -10.5 C 10.941406 -9.8125 11.25 -8.742188 11.25 -7.296875 L 11.25 0 L 9.578125 0 L 9.578125 -7.25 C 9.578125 -7.9375 9.488281 -8.488281 9.3125 -8.90625 C 9.132812 -9.320312 8.863281 -9.625 8.5 -9.8125 C 8.132812 -10 7.65625 -10.09375 7.0625 -10.09375 C 6.03125 -10.09375 5.203125 -9.757812 4.578125 -9.09375 C 3.953125 -8.425781 3.640625 -7.332031 3.640625 -5.8125 L 3.640625 0 Z M 1.96875 0 "/></g><g transform="translate(694.790674, 238.642508)"><path style="stroke:none" d=""/></g><g transform="translate(699.949067, 238.642508)"><path style="stroke:none" d="M 13.53125 0 L 11.640625 0 L 10.25 -4.125 L 3.84375 -4.125 L 2.453125 0 L 0.59375 0 L 5.84375 -15.03125 L 8.28125 -15.03125 Z M 6.921875 -13.203125 L 4.34375 -5.59375 L 9.75 -5.59375 L 7.171875 -13.203125 Z M 6.921875 -13.203125 "/></g><g transform="translate(714.067855, 238.642508)"><path style="stroke:none" d="M 5.171875 0.21875 C 4.453125 0.21875 3.789062 0.125 3.1875 -0.0625 C 2.582031 -0.25 2.070312 -0.507812 1.65625 -0.84375 C 1.238281 -1.175781 0.941406 -1.546875 0.765625 -1.953125 L 1.75 -2.984375 L 1.96875 -2.984375 C 2.34375 -2.421875 2.789062 -1.992188 3.3125 -1.703125 C 3.832031 -1.421875 4.453125 -1.28125 5.171875 -1.28125 C 6.003906 -1.28125 6.640625 -1.441406 7.078125 -1.765625 C 7.515625 -2.097656 7.734375 -2.554688 7.734375 -3.140625 C 7.734375 -3.578125 7.597656 -3.941406 7.328125 -4.234375 C 7.066406 -4.523438 6.640625 -4.742188 6.046875 -4.890625 L 4.140625 -5.359375 C 3.117188 -5.609375 2.375 -6 1.90625 -6.53125 C 1.4375 -7.070312 1.203125 -7.734375 1.203125 -8.515625 C 1.203125 -9.128906 1.359375 -9.664062 1.671875 -10.125 C 1.984375 -10.582031 2.4375 -10.929688 3.03125 -11.171875 C 3.625 -11.421875 4.332031 -11.546875 5.15625 -11.546875 C 6.1875 -11.546875 7.003906 -11.398438 7.609375 -11.109375 C 8.210938 -10.816406 8.679688 -10.410156 9.015625 -9.890625 L 8.0625 -8.96875 L 7.859375 -8.96875 C 7.492188 -9.382812 7.097656 -9.6875 6.671875 -9.875 C 6.242188 -10.0625 5.738281 -10.15625 5.15625 -10.15625 C 4.40625 -10.15625 3.832031 -10.019531 3.4375 -9.75 C 3.039062 -9.488281 2.84375 -9.101562 2.84375 -8.59375 C 2.84375 -8.132812 2.976562 -7.765625 3.25 -7.484375 C 3.53125 -7.203125 4.023438 -6.972656 4.734375 -6.796875 L 6.609375 -6.34375 C 7.597656 -6.113281 8.3125 -5.726562 8.75 -5.1875 C 9.1875 -4.644531 9.40625 -3.96875 9.40625 -3.15625 C 9.40625 -2.488281 9.242188 -1.898438 8.921875 -1.390625 C 8.609375 -0.890625 8.132812 -0.492188 7.5 -0.203125 C 6.863281 0.078125 6.085938 0.21875 5.171875 0.21875 Z M 5.171875 0.21875 "/></g><g transform="translate(724.549051, 238.642508)"><path style="stroke:none" d="M 5.171875 0.21875 C 4.453125 0.21875 3.789062 0.125 3.1875 -0.0625 C 2.582031 -0.25 2.070312 -0.507812 1.65625 -0.84375 C 1.238281 -1.175781 0.941406 -1.546875 0.765625 -1.953125 L 1.75 -2.984375 L 1.96875 -2.984375 C 2.34375 -2.421875 2.789062 -1.992188 3.3125 -1.703125 C 3.832031 -1.421875 4.453125 -1.28125 5.171875 -1.28125 C 6.003906 -1.28125 6.640625 -1.441406 7.078125 -1.765625 C 7.515625 -2.097656 7.734375 -2.554688 7.734375 -3.140625 C 7.734375 -3.578125 7.597656 -3.941406 7.328125 -4.234375 C 7.066406 -4.523438 6.640625 -4.742188 6.046875 -4.890625 L 4.140625 -5.359375 C 3.117188 -5.609375 2.375 -6 1.90625 -6.53125 C 1.4375 -7.070312 1.203125 -7.734375 1.203125 -8.515625 C 1.203125 -9.128906 1.359375 -9.664062 1.671875 -10.125 C 1.984375 -10.582031 2.4375 -10.929688 3.03125 -11.171875 C 3.625 -11.421875 4.332031 -11.546875 5.15625 -11.546875 C 6.1875 -11.546875 7.003906 -11.398438 7.609375 -11.109375 C 8.210938 -10.816406 8.679688 -10.410156 9.015625 -9.890625 L 8.0625 -8.96875 L 7.859375 -8.96875 C 7.492188 -9.382812 7.097656 -9.6875 6.671875 -9.875 C 6.242188 -10.0625 5.738281 -10.15625 5.15625 -10.15625 C 4.40625 -10.15625 3.832031 -10.019531 3.4375 -9.75 C 3.039062 -9.488281 2.84375 -9.101562 2.84375 -8.59375 C 2.84375 -8.132812 2.976562 -7.765625 3.25 -7.484375 C 3.53125 -7.203125 4.023438 -6.972656 4.734375 -6.796875 L 6.609375 -6.34375 C 7.597656 -6.113281 8.3125 -5.726562 8.75 -5.1875 C 9.1875 -4.644531 9.40625 -3.96875 9.40625 -3.15625 C 9.40625 -2.488281 9.242188 -1.898438 8.921875 -1.390625 C 8.609375 -0.890625 8.132812 -0.492188 7.5 -0.203125 C 6.863281 0.078125 6.085938 0.21875 5.171875 0.21875 Z M 5.171875 0.21875 "/></g><g transform="translate(735.030247, 238.642508)"><path style="stroke:none" d="M 10.796875 -5.28125 L 3.015625 -5.28125 C 3.054688 -3.90625 3.382812 -2.894531 4 -2.25 C 4.613281 -1.601562 5.457031 -1.28125 6.53125 -1.28125 C 7.332031 -1.28125 7.976562 -1.421875 8.46875 -1.703125 C 8.96875 -1.992188 9.359375 -2.453125 9.640625 -3.078125 L 9.859375 -3.078125 L 10.9375 -2.421875 C 10.613281 -1.597656 10.085938 -0.953125 9.359375 -0.484375 C 8.640625 -0.015625 7.695312 0.21875 6.53125 0.21875 C 5.425781 0.21875 4.476562 0.00390625 3.6875 -0.421875 C 2.90625 -0.859375 2.300781 -1.515625 1.875 -2.390625 C 1.457031 -3.265625 1.25 -4.351562 1.25 -5.65625 C 1.25 -6.945312 1.472656 -8.035156 1.921875 -8.921875 C 2.367188 -9.804688 2.976562 -10.460938 3.75 -10.890625 C 4.53125 -11.328125 5.421875 -11.546875 6.421875 -11.546875 C 7.878906 -11.546875 9.015625 -11.132812 9.828125 -10.3125 C 10.640625 -9.5 11.050781 -8.289062 11.0625 -6.6875 C 11.0625 -6.050781 11.046875 -5.625 11.015625 -5.40625 Z M 9.40625 -6.6875 C 9.375 -7.882812 9.101562 -8.757812 8.59375 -9.3125 C 8.09375 -9.863281 7.367188 -10.140625 6.421875 -10.140625 C 5.429688 -10.140625 4.648438 -9.863281 4.078125 -9.3125 C 3.515625 -8.757812 3.171875 -7.882812 3.046875 -6.6875 Z M 9.40625 -6.6875 "/></g><g transform="translate(747.11445, 238.642508)"><path style="stroke:none" d="M 5.171875 0.21875 C 4.453125 0.21875 3.789062 0.125 3.1875 -0.0625 C 2.582031 -0.25 2.070312 -0.507812 1.65625 -0.84375 C 1.238281 -1.175781 0.941406 -1.546875 0.765625 -1.953125 L 1.75 -2.984375 L 1.96875 -2.984375 C 2.34375 -2.421875 2.789062 -1.992188 3.3125 -1.703125 C 3.832031 -1.421875 4.453125 -1.28125 5.171875 -1.28125 C 6.003906 -1.28125 6.640625 -1.441406 7.078125 -1.765625 C 7.515625 -2.097656 7.734375 -2.554688 7.734375 -3.140625 C 7.734375 -3.578125 7.597656 -3.941406 7.328125 -4.234375 C 7.066406 -4.523438 6.640625 -4.742188 6.046875 -4.890625 L 4.140625 -5.359375 C 3.117188 -5.609375 2.375 -6 1.90625 -6.53125 C 1.4375 -7.070312 1.203125 -7.734375 1.203125 -8.515625 C 1.203125 -9.128906 1.359375 -9.664062 1.671875 -10.125 C 1.984375 -10.582031 2.4375 -10.929688 3.03125 -11.171875 C 3.625 -11.421875 4.332031 -11.546875 5.15625 -11.546875 C 6.1875 -11.546875 7.003906 -11.398438 7.609375 -11.109375 C 8.210938 -10.816406 8.679688 -10.410156 9.015625 -9.890625 L 8.0625 -8.96875 L 7.859375 -8.96875 C 7.492188 -9.382812 7.097656 -9.6875 6.671875 -9.875 C 6.242188 -10.0625 5.738281 -10.15625 5.15625 -10.15625 C 4.40625 -10.15625 3.832031 -10.019531 3.4375 -9.75 C 3.039062 -9.488281 2.84375 -9.101562 2.84375 -8.59375 C 2.84375 -8.132812 2.976562 -7.765625 3.25 -7.484375 C 3.53125 -7.203125 4.023438 -6.972656 4.734375 -6.796875 L 6.609375 -6.34375 C 7.597656 -6.113281 8.3125 -5.726562 8.75 -5.1875 C 9.1875 -4.644531 9.40625 -3.96875 9.40625 -3.15625 C 9.40625 -2.488281 9.242188 -1.898438 8.921875 -1.390625 C 8.609375 -0.890625 8.132812 -0.492188 7.5 -0.203125 C 6.863281 0.078125 6.085938 0.21875 5.171875 0.21875 Z M 5.171875 0.21875 "/></g><g transform="translate(757.595646, 238.642508)"><path style="stroke:none" d="M 5.171875 0.21875 C 4.453125 0.21875 3.789062 0.125 3.1875 -0.0625 C 2.582031 -0.25 2.070312 -0.507812 1.65625 -0.84375 C 1.238281 -1.175781 0.941406 -1.546875 0.765625 -1.953125 L 1.75 -2.984375 L 1.96875 -2.984375 C 2.34375 -2.421875 2.789062 -1.992188 3.3125 -1.703125 C 3.832031 -1.421875 4.453125 -1.28125 5.171875 -1.28125 C 6.003906 -1.28125 6.640625 -1.441406 7.078125 -1.765625 C 7.515625 -2.097656 7.734375 -2.554688 7.734375 -3.140625 C 7.734375 -3.578125 7.597656 -3.941406 7.328125 -4.234375 C 7.066406 -4.523438 6.640625 -4.742188 6.046875 -4.890625 L 4.140625 -5.359375 C 3.117188 -5.609375 2.375 -6 1.90625 -6.53125 C 1.4375 -7.070312 1.203125 -7.734375 1.203125 -8.515625 C 1.203125 -9.128906 1.359375 -9.664062 1.671875 -10.125 C 1.984375 -10.582031 2.4375 -10.929688 3.03125 -11.171875 C 3.625 -11.421875 4.332031 -11.546875 5.15625 -11.546875 C 6.1875 -11.546875 7.003906 -11.398438 7.609375 -11.109375 C 8.210938 -10.816406 8.679688 -10.410156 9.015625 -9.890625 L 8.0625 -8.96875 L 7.859375 -8.96875 C 7.492188 -9.382812 7.097656 -9.6875 6.671875 -9.875 C 6.242188 -10.0625 5.738281 -10.15625 5.15625 -10.15625 C 4.40625 -10.15625 3.832031 -10.019531 3.4375 -9.75 C 3.039062 -9.488281 2.84375 -9.101562 2.84375 -8.59375 C 2.84375 -8.132812 2.976562 -7.765625 3.25 -7.484375 C 3.53125 -7.203125 4.023438 -6.972656 4.734375 -6.796875 L 6.609375 -6.34375 C 7.597656 -6.113281 8.3125 -5.726562 8.75 -5.1875 C 9.1875 -4.644531 9.40625 -3.96875 9.40625 -3.15625 C 9.40625 -2.488281 9.242188 -1.898438 8.921875 -1.390625 C 8.609375 -0.890625 8.132812 -0.492188 7.5 -0.203125 C 6.863281 0.078125 6.085938 0.21875 5.171875 0.21875 Z M 5.171875 0.21875 "/></g><g transform="translate(768.076842, 238.642508)"><path style="stroke:none" d="M 1.96875 0 L 1.96875 -11.328125 L 3.5625 -11.328125 L 3.5625 -9.65625 L 3.78125 -9.625 C 4.164062 -10.257812 4.628906 -10.738281 5.171875 -11.0625 C 5.710938 -11.382812 6.363281 -11.546875 7.125 -11.546875 C 8.007812 -11.546875 8.691406 -11.378906 9.171875 -11.046875 C 9.648438 -10.710938 10.019531 -10.175781 10.28125 -9.4375 L 10.5 -9.4375 C 10.894531 -10.132812 11.378906 -10.660156 11.953125 -11.015625 C 12.523438 -11.367188 13.226562 -11.546875 14.0625 -11.546875 C 15.226562 -11.546875 16.09375 -11.226562 16.65625 -10.59375 C 17.226562 -9.96875 17.515625 -9.015625 17.515625 -7.734375 L 17.515625 0 L 15.84375 0 L 15.84375 -7.6875 C 15.84375 -8.507812 15.671875 -9.113281 15.328125 -9.5 C 14.984375 -9.894531 14.425781 -10.09375 13.65625 -10.09375 C 12.75 -10.09375 12.007812 -9.765625 11.4375 -9.109375 C 10.863281 -8.453125 10.578125 -7.367188 10.578125 -5.859375 L 10.578125 0 L 8.90625 0 L 8.90625 -7.6875 C 8.90625 -8.507812 8.734375 -9.113281 8.390625 -9.5 C 8.046875 -9.894531 7.488281 -10.09375 6.71875 -10.09375 C 5.8125 -10.09375 5.070312 -9.773438 4.5 -9.140625 C 3.925781 -8.503906 3.640625 -7.46875 3.640625 -6.03125 L 3.640625 0 Z M 1.96875 0 "/></g><g transform="translate(787.395126, 238.642508)"><path style="stroke:none" d="M 10.796875 -5.28125 L 3.015625 -5.28125 C 3.054688 -3.90625 3.382812 -2.894531 4 -2.25 C 4.613281 -1.601562 5.457031 -1.28125 6.53125 -1.28125 C 7.332031 -1.28125 7.976562 -1.421875 8.46875 -1.703125 C 8.96875 -1.992188 9.359375 -2.453125 9.640625 -3.078125 L 9.859375 -3.078125 L 10.9375 -2.421875 C 10.613281 -1.597656 10.085938 -0.953125 9.359375 -0.484375 C 8.640625 -0.015625 7.695312 0.21875 6.53125 0.21875 C 5.425781 0.21875 4.476562 0.00390625 3.6875 -0.421875 C 2.90625 -0.859375 2.300781 -1.515625 1.875 -2.390625 C 1.457031 -3.265625 1.25 -4.351562 1.25 -5.65625 C 1.25 -6.945312 1.472656 -8.035156 1.921875 -8.921875 C 2.367188 -9.804688 2.976562 -10.460938 3.75 -10.890625 C 4.53125 -11.328125 5.421875 -11.546875 6.421875 -11.546875 C 7.878906 -11.546875 9.015625 -11.132812 9.828125 -10.3125 C 10.640625 -9.5 11.050781 -8.289062 11.0625 -6.6875 C 11.0625 -6.050781 11.046875 -5.625 11.015625 -5.40625 Z M 9.40625 -6.6875 C 9.375 -7.882812 9.101562 -8.757812 8.59375 -9.3125 C 8.09375 -9.863281 7.367188 -10.140625 6.421875 -10.140625 C 5.429688 -10.140625 4.648438 -9.863281 4.078125 -9.3125 C 3.515625 -8.757812 3.171875 -7.882812 3.046875 -6.6875 Z M 9.40625 -6.6875 "/></g><g transform="translate(799.479328, 238.642508)"><path style="stroke:none" d="M 1.96875 0 L 1.96875 -11.328125 L 3.5625 -11.328125 L 3.5625 -9.5625 L 3.78125 -9.5 C 4.15625 -10.164062 4.632812 -10.671875 5.21875 -11.015625 C 5.8125 -11.367188 6.53125 -11.546875 7.375 -11.546875 C 8.726562 -11.546875 9.710938 -11.195312 10.328125 -10.5 C 10.941406 -9.8125 11.25 -8.742188 11.25 -7.296875 L 11.25 0 L 9.578125 0 L 9.578125 -7.25 C 9.578125 -7.9375 9.488281 -8.488281 9.3125 -8.90625 C 9.132812 -9.320312 8.863281 -9.625 8.5 -9.8125 C 8.132812 -10 7.65625 -10.09375 7.0625 -10.09375 C 6.039062 -10.09375 5.210938 -9.753906 4.578125 -9.078125 C 3.953125 -8.398438 3.640625 -7.3125 3.640625 -5.8125 L 3.640625 0 Z M 1.96875 0 "/></g></g><g style="fill:#000000;fill-opacity:1;"><g transform="translate(812.447239, 238.642508)"><path style="stroke:none" d="M 7.671875 -1.796875 L 8.203125 -0.59375 C 7.929688 -0.320312 7.578125 -0.117188 7.140625 0.015625 C 6.710938 0.148438 6.242188 0.21875 5.734375 0.21875 C 3.566406 0.21875 2.484375 -0.878906 2.484375 -3.078125 L 2.484375 -9.96875 L 0.515625 -9.96875 L 0.515625 -11.34375 L 2.484375 -11.34375 L 2.484375 -13.734375 L 4.15625 -14.015625 L 4.15625 -11.34375 L 7.8125 -11.34375 L 7.8125 -9.96875 L 4.15625 -9.96875 L 4.15625 -3.234375 C 4.15625 -1.929688 4.722656 -1.28125 5.859375 -1.28125 C 6.472656 -1.28125 7.003906 -1.453125 7.453125 -1.796875 Z M 7.671875 -1.796875 "/></g></g><path style=" stroke:none;fill-rule:nonzero;fill:#6ce5e8;fill-opacity:0.4;" d="M 719.414062 480.703125 L 719.414062 322.867188 L 869.523438 431.929688 Z M 719.414062 480.703125 "/><path style="fill-rule:nonzero;fill:#000000;fill-opacity:0.4;stroke-width:3;stroke-linecap:butt;stroke-linejoin:round;stroke:#6ce5e8;stroke-opacity:1;stroke-miterlimit:4;" d="M 0.000642043 -120.000904 L 114.127318 -37.081761 Z M 0.000642043 -120.000904 " transform="matrix(1.315287,0,0,1.315287,719.413218,480.70286)"/><path style=" stroke:none;fill-rule:nonzero;fill:#6ce5e8;fill-opacity:0.4;" d="M 719.414062 480.703125 L 869.523438 431.929688 L 796.722656 587.113281 Z M 719.414062 480.703125 "/><path style="fill-rule:nonzero;fill:#000000;fill-opacity:0.4;stroke-width:3;stroke-linecap:butt;stroke-linejoin:round;stroke:#6ce5e8;stroke-opacity:1;stroke-miterlimit:4;" d="M 114.127318 -37.081761 L 58.777603 80.902793 Z M 114.127318 -37.081761 " transform="matrix(1.315287,0,0,1.315287,719.413218,480.70286)"/><path style=" stroke:none;fill-rule:nonzero;fill:#6ce5e8;fill-opacity:0.4;" d="M 719.414062 480.703125 L 796.722656 587.113281 L 642.101562 587.113281 Z M 719.414062 480.703125 "/><path style="fill:none;stroke-width:3;stroke-linecap:butt;stroke-linejoin:round;stroke:#6ce5e8;stroke-opacity:1;stroke-miterlimit:4;" d="M 58.777603 80.902793 L -58.779288 80.902793 Z M 58.777603 80.902793 " transform="matrix(1.315287,0,0,1.315287,719.413218,480.70286)"/><path style=" stroke:none;fill-rule:nonzero;fill:#6ce5e8;fill-opacity:0.4;" d="M 719.414062 480.703125 L 642.101562 587.113281 L 569.304688 431.929688 Z M 719.414062 480.703125 "/><path style="fill-rule:nonzero;fill:#000000;fill-opacity:0.4;stroke-width:3;stroke-linecap:butt;stroke-linejoin:round;stroke:#6ce5e8;stroke-opacity:1;stroke-miterlimit:4;" d="M -58.779288 80.902793 L -114.126034 -37.081761 Z M -58.779288 80.902793 " transform="matrix(1.315287,0,0,1.315287,719.413218,480.70286)"/><path style=" stroke:none;fill-rule:nonzero;fill:#6ce5e8;fill-opacity:0.4;" d="M 719.414062 480.703125 L 569.304688 431.929688 L 719.414062 322.867188 Z M 719.414062 480.703125 "/><path style="fill-rule:nonzero;fill:#000000;fill-opacity:0.4;stroke-width:3;stroke-linecap:butt;stroke-linejoin:round;stroke:#6ce5e8;stroke-opacity:1;stroke-miterlimit:4;" d="M -114.126034 -37.081761 L 0.000642043 -120.000904 Z M -114.126034 -37.081761 " transform="matrix(1.315287,0,0,1.315287,719.413218,480.70286)"/><path style=" stroke:none;fill-rule:nonzero;fill:#2d8bba;fill-opacity:0.4;" d="M 719.414062 480.703125 L 719.414062 349.175781 L 869.523438 431.929688 Z M 719.414062 480.703125 "/><path style="fill-rule:nonzero;fill:#000000;fill-opacity:0.4;stroke-width:3;stroke-linecap:butt;stroke-linejoin:round;stroke:#2d8bba;stroke-opacity:1;stroke-miterlimit:4;" d="M 0.000642043 -99.998739 L 114.127318 -37.081761 Z M 0.000642043 -99.998739 " transform="matrix(1.315287,0,0,1.315287,719.413218,480.70286)"/><path style=" stroke:none;fill-rule:nonzero;fill:#2d8bba;fill-opacity:0.4;" d="M 719.414062 480.703125 L 869.523438 431.929688 L 765.800781 544.546875 Z M 719.414062 480.703125 "/><path style="fill-rule:nonzero;fill:#000000;fill-opacity:0.4;stroke-width:3;stroke-linecap:butt;stroke-linejoin:round;stroke:#2d8bba;stroke-opacity:1;stroke-miterlimit:4;" d="M 114.127318 -37.081761 L 35.268006 48.539974 Z M 114.127318 -37.081761 " transform="matrix(1.315287,0,0,1.315287,719.413218,480.70286)"/><path style=" stroke:none;fill-rule:nonzero;fill:#2d8bba;fill-opacity:0.4;" d="M 719.414062 480.703125 L 765.800781 544.546875 L 642.101562 587.113281 Z M 719.414062 480.703125 "/><path style="fill-rule:nonzero;fill:#000000;fill-opacity:0.4;stroke-width:3;stroke-linecap:butt;stroke-linejoin:round;stroke:#2d8bba;stroke-opacity:1;stroke-miterlimit:4;" d="M 35.268006 48.539974 L -58.779288 80.902793 Z M 35.268006 48.539974 " transform="matrix(1.315287,0,0,1.315287,719.413218,480.70286)"/><path style=" stroke:none;fill-rule:nonzero;fill:#2d8bba;fill-opacity:0.4;" d="M 719.414062 480.703125 L 642.101562 587.113281 L 519.265625 415.671875 Z M 719.414062 480.703125 "/><path style="fill-rule:nonzero;fill:#000000;fill-opacity:0.4;stroke-width:3;stroke-linecap:butt;stroke-linejoin:round;stroke:#2d8bba;stroke-opacity:1;stroke-miterlimit:4;" d="M -58.779288 80.902793 L -152.170239 -49.442416 Z M -58.779288 80.902793 " transform="matrix(1.315287,0,0,1.315287,719.413218,480.70286)"/><path style=" stroke:none;fill-rule:nonzero;fill:#2d8bba;fill-opacity:0.4;" d="M 719.414062 480.703125 L 519.265625 415.671875 L 719.414062 349.175781 Z M 719.414062 480.703125 "/><path style="fill-rule:nonzero;fill:#000000;fill-opacity:0.4;stroke-width:3;stroke-linecap:butt;stroke-linejoin:round;stroke:#2d8bba;stroke-opacity:1;stroke-miterlimit:4;" d="M -152.170239 -49.442416 L 0.000642043 -99.998739 Z M -152.170239 -49.442416 " transform="matrix(1.315287,0,0,1.315287,719.413218,480.70286)"/></g></svg>