<svg preserveAspectRatio="xMidYMid meet" data-bbox="17.11 27.66 527.96 87.44" viewBox="17.11 27.66 527.96 87.44" xmlns="http://www.w3.org/2000/svg" data-type="color" role="img" aria-label="XC Tracer Logo"><defs><style>#comp-km4n2806 svg [data-color="1"] {fill: #2F2E2E;}</style></defs>
    <g>
        <path d="M186.44 47.2h-21.5l-1.06 1.08v60.18l-1.08 1.08h-12.9l-1.08-1.08V48.28l-1.07-1.08h-21.49l-1.07-1.07V35.39l1.07-1.08h60.19l1.06 1.08v10.74l-1.07 1.07z" fill="#3d4963" data-color="1"></path>
        <path d="M243.39 78.37v1.07l13.97 18.27v10.75l-1.06 1.08h-6.47l-2.15-1.08-21.49-27.94-2.15-1.08h-10.75l-1.08 1.08v27.94l-1.07 1.08h-12.9l-1.08-1.08V35.39l1.08-1.08h35.46c15.04 0 25.81 7.53 25.81 22.57 0 11.81-7.54 19.34-16.12 21.49zm-9.68-31.17h-20.42l-1.08 1.08v17.19l1.08 1.08h20.42c6.44 0 10.75-2.14 10.75-9.67-.01-7.52-4.31-9.68-10.75-9.68z" fill="#3d4963" data-color="1"></path>
        <path d="M330.48 109.54h-9.67l-1.08-1.08-5.38-13.98-2.15-1.06h-26.86l-2.15 1.06-5.37 13.98-1.07 1.08h-9.69l-1.07-1.08V97.71l24.72-62.32 1.08-1.08h13.97l1.08 1.08 24.72 62.32v10.75l-1.08 1.08zm-31.17-55.89h-1.08l-9.67 25.79 1.07 1.08h18.27l1.07-1.08-9.66-25.79z" fill="#3d4963" data-color="1"></path>
        <path d="M389.28 86.97l1.07-1.08h12.9l1.08 1.08c-2.16 15.04-13.98 23.64-31.17 23.64-23.65 0-36.54-16.12-36.54-38.69 0-22.56 12.89-38.68 36.54-38.68 17.19 0 29.01 8.6 31.17 22.57l-1.08 1.07h-12.9l-1.07-1.07c-2.14-6.45-7.52-9.67-16.12-9.67-15.06 0-21.49 10.75-21.49 25.79 0 15.05 6.43 25.79 21.49 25.79 8.6-.01 13.97-3.23 16.12-10.75z" fill="#3d4963" data-color="1"></path>
        <path d="M468.06 109.53h-50.51l-1.07-1.07V35.39l1.07-1.08h50.51l1.07 1.08v10.74l-1.07 1.07H432.6l-1.08 1.08v15.04l1.08 1.08h33.31l1.06 1.06v10.75l-1.06 1.09H432.6l-1.08 1.07v17.19l1.08 1.08h35.46l1.07 1.07v10.75l-1.07 1.07z" fill="#3d4963" data-color="1"></path>
        <path d="M528.95 78.37v1.07l13.97 18.27v10.75l-1.07 1.07h-6.46l-2.14-1.07-21.49-27.94-2.15-1.08h-10.74l-1.08 1.08v27.94l-1.07 1.07h-12.9l-1.08-1.07V35.39l1.08-1.08h35.46c15.04 0 25.79 7.53 25.79 22.57-.01 11.81-7.52 19.34-16.12 21.49zm-9.68-31.17h-20.41l-1.08 1.08v17.19l1.08 1.08h20.41c6.46 0 10.75-2.14 10.75-9.67 0-7.52-4.29-9.68-10.75-9.68z" fill="#3d4963" data-color="1"></path>
        <path fill="#af161e" d="M66.81 70.68L30.94 28.37l-1.68-.71-11.08.01-1.07 1.19.01 12.22.6 1.77 23.99 27.93v1.16L17.8 99.82l-.68 1.89-.01 12.27 1.14 1.12H29.3l1.69-.78 35.83-42.3-.01-1.34z" data-color="2"></path>
        <path fill="#f39200" d="M69.24 55.78l23.1-27.25 1.8-.87 11.17.01 1 1.1-.01 12.4-.54 1.61-17.35 20.18-.57 1.68v13.42l.5 1.62 17.32 20.18.64 1.74.01 12.54-1.08.95-11.07.01-1.74-.78-23.1-27.33-.65-1.79-.04-27.58.61-1.84z" data-color="3"></path>
    </g>
</svg>