					<svg xmlns="http://www.w3.org/2000/svg" width="455.263" height="112.599" viewBox="0 0 455.263 112.599" role="img"><title></title>
					<g id="Group_2259" data-name="Group 2259" transform="translate(0 0)">
					  <path id="Path_3806" data-name="Path 3806" d="M93.648,9.176C80.42-.419,50.287-3.712,23.661,5.266S.522,26.807.923,29.4,8.858,59.35,33.764,78.064A79.5,79.5,0,0,1,21.119,63.905s-6.984-10.536-8.527-19.148c0,0-3.259-11.126,12.464-19.048,0,0,18.547-11.37,48.867-12.164,0,0,17.578.031,23.913,4.253a10.2,10.2,0,0,0-4.188-8.622" transform="translate(-0.24 0.001)" fill="#1c3c48"></path>
					  <path id="Path_3807" data-name="Path 3807" d="M64.086,60.4A79.586,79.586,0,0,1,76.732,74.556s6.984,10.538,8.528,19.15c0,0,3.257,11.126-12.466,19.05,0,0-18.548,11.367-48.865,12.164,0,0-17.583-.031-23.916-4.251A10.2,10.2,0,0,0,4.2,129.288c13.231,9.6,43.362,12.891,69.988,3.913s23.139-21.542,22.739-24.134S88.992,79.115,64.086,60.4" transform="translate(0 -25.869)" fill="#1c3c48"></path>
					  <path id="Path_3808" data-name="Path 3808" d="M322.383,171.774h-1.141v8.585h5.685V179.4h-4.544Z" transform="translate(-137.588 -73.57)" fill="#1c3c48"></path>
					  <rect id="Rectangle_870" data-name="Rectangle 870" width="1.143" height="8.585" transform="translate(197.598 98.203)" fill="#1c3c48"></rect>
					  <path id="Path_3809" data-name="Path 3809" d="M363.608,180.358h1.142v-3.933h3.942v-.96H364.75v-2.729h4.5v-.962h-5.638Z" transform="translate(-155.733 -73.57)" fill="#1c3c48"></path>
					  <path id="Path_3810" data-name="Path 3810" d="M389.434,176.425h4.46v-.96h-4.46v-2.729h4.781v-.962H388.29v8.585h5.963V179.4h-4.819Z" transform="translate(-166.304 -73.57)" fill="#1c3c48"></path>
					  <rect id="Rectangle_871" data-name="Rectangle 871" width="1.141" height="8.585" transform="translate(247.145 98.203)" fill="#1c3c48"></rect>
					  <path id="Path_3811" data-name="Path 3811" d="M453.567,175.373c-1.384-.313-2.753-.471-2.753-1.526,0-1.12.96-1.469,1.922-1.469a1.876,1.876,0,0,1,2.129,1.755h1.082c-.073-1.886-1.407-2.716-3.162-2.716-1.564,0-3.115.768-3.115,2.512,0,1.573,1.384,1.971,2.754,2.272s2.741.508,2.741,1.685c0,1.237-1.142,1.563-2.175,1.563-1.3,0-2.5-.626-2.5-2.068H449.4c0,2.091,1.624,3.028,3.549,3.028,1.563,0,3.354-.734,3.354-2.56,0-1.684-1.37-2.167-2.74-2.476" transform="translate(-192.48 -73.417)" fill="#1c3c48"></path>
					  <rect id="Rectangle_872" data-name="Rectangle 872" width="1.142" height="8.585" transform="translate(283.022 98.203)" fill="#1c3c48"></rect>
					  <path id="Path_3812" data-name="Path 3812" d="M518.766,178.736h-.024l-4.521-6.962h-1.213v8.585h1.082v-6.889h.025l4.483,6.889h1.251v-8.585h-1.083Z" transform="translate(-219.721 -73.57)" fill="#1c3c48"></path>
					  <path id="Path_3813" data-name="Path 3813" d="M557.686,172.736h2.861v7.622h1.143v-7.622h2.861v-.962h-6.866Z" transform="translate(-238.856 -73.57)" fill="#1c3c48"></path>
					  <path id="Path_3814" data-name="Path 3814" d="M589.627,175.465h-4.518v-3.691h-1.144v8.585h1.144v-3.933h4.518v3.933h1.144v-8.585h-1.144Z" transform="translate(-250.111 -73.57)" fill="#1c3c48"></path>
					  <path id="Path_3815" data-name="Path 3815" d="M612.9,176.425h4.46v-.96H612.9v-2.729h4.785v-.962h-5.926v8.585h5.962V179.4H612.9Z" transform="translate(-262.018 -73.57)" fill="#1c3c48"></path>
					  <path id="Path_3816" data-name="Path 3816" d="M657.25,171.773l-3.355,8.585h1.179l.96-2.585h3.632l.938,2.585h1.262l-3.355-8.585Zm-.854,5.036,1.455-4h.023l1.432,4Z" transform="translate(-280.062 -73.57)" fill="#1c3c48"></path>
					  <rect id="Rectangle_873" data-name="Rectangle 873" width="1.142" height="8.585" transform="translate(389.903 98.203)" fill="#1c3c48"></rect>
					  <path id="Path_3817" data-name="Path 3817" d="M705.141,176.224V176.2a2.06,2.06,0,0,0,1.492-2.178c0-1.372-1-2.247-2.61-2.247h-4.037v8.585h1.141v-3.668h2.79c1.1,0,1.31.711,1.429,1.552.168.843-.013,1.766.313,2.116h1.274a4.405,4.405,0,0,1-.506-2.37c-.081-.841-.287-1.572-1.286-1.764m-1.635-.494h-2.379v-2.994h2.837a1.357,1.357,0,0,1,1.526,1.465c0,1.255-.913,1.529-1.984,1.529" transform="translate(-299.803 -73.57)" fill="#1c3c48"></path>
					  <path id="Path_3818" data-name="Path 3818" d="M244.034,65.464c0-5.307,3.074-8.1,8.242-8.1,4.351,0,6.51,2,7.334,5.179l5.567-2.578c-1.771-5.035-5.962-7.627-12.973-7.627-12.638,0-14.6,9.147-14.6,13.755,0,18.293,23.532,10.124,23.532,24.226a8.4,8.4,0,0,1-8.659,8.8c-6.067,0-8.2-2.726-8.952-6.212l-5.583,2.585c1.683,5.6,5.806,8.655,14.118,8.655,7.052,0,15.5-3.28,15.5-14.8,0-18.222-23.529-9.844-23.529-23.874" transform="translate(-101.767 -22.415)" fill="#1c3c48"></path>
					  <path id="Path_3819" data-name="Path 3819" d="M371.861,89.093c0,6.982-1.953,10.753-8.517,10.753-6.072,0-8.446-3.422-8.446-10.753V54.048h-6.145V89.093c0,10.264,4.607,15.782,14.59,15.782,9.778,0,14.661-6.215,14.661-15.782V54.048h-6.143Z" transform="translate(-149.37 -23.148)" fill="#1c3c48"></path>
					  <path id="Path_3820" data-name="Path 3820" d="M474.676,54.048h-12.7V103.9h6.144V82.81h7.609c8.447,0,14.381-5.165,14.381-14.45,0-14.312-11.1-14.312-15.429-14.312m.769,23.736h-7.33V59.076h6.91c6.076,0,8.66,3.558,8.66,9,0,6.632-3.771,9.7-8.239,9.7" transform="translate(-197.862 -23.148)" fill="#1c3c48"></path>
					  <path id="Path_3821" data-name="Path 3821" d="M764.872,53.184c-9.863.069-14.416,5.579-14.416,15.784v35.048h6.14V68.968c0-7.258,2.326-9.619,8.264-9.688h11.822v-6.1Z" transform="translate(-321.419 -22.778)" fill="#7fae13"></path>
					  <rect id="Rectangle_874" data-name="Rectangle 874" width="6.146" height="49.856" transform="translate(386.862 30.897)" fill="#7fae13"></rect>
					  <path id="Path_3822" data-name="Path 3822" d="M583.81,115.631l-1.394,5.019h9.461l-1.31-5.019Z" transform="translate(-249.448 -49.524)" fill="#7fae13"></path>
					  <path id="Path_3823" data-name="Path 3823" d="M573.093,54.043,558.712,103.9h6.421L577,61.094h.139l11.17,42.8h6.424L581.332,54.043Z" transform="translate(-239.296 -23.146)" fill="#7fae13"></path>
					</g>
				  </svg>