<svg xmlns="http://www.w3.org/2000/svg" width="89.202" height="80" viewBox="0 0 89.202 80"><g id="logo-neg" transform="translate(0)"><g id="Group_3" data-name="Group 3" transform="translate(0)"><g id="Group_1" data-name="Group 1" transform="translate(13.377)"><path id="Path_1" data-name="Path 1" d="M38.153,93.728a16.559,16.559,0,0,1-6.3,2.164,16.707,16.707,0,0,1-7.3-1.027,30.079,30.079,0,0,0,4.976,8.724c.094.094.188.187.281.281,4.8,4.8,12.838,7.439,20.991-.706l9.433-9.434H38.153Z" transform="translate(-24.561 -42.679)" fill="#e30613"></path><path id="Path_2" data-name="Path 2" d="M106.556,0l8.877,8.874L98.476,25.833h20.637l6.638-6.639,8.292,8.294V0Z" transform="translate(-58.218)" fill="#e30613"></path></g><g id="Group_2" data-name="Group 2"><path id="Path_3" data-name="Path 3" d="M112.483,63.982a4,4,0,0,0,3.1-1.145,3.63,3.63,0,0,0,1.142-2.81V54.29a3.813,3.813,0,0,0-1.233-2.877,4.659,4.659,0,0,0-3.09-1.107l-13.552,0V72.381H103.6V64.543l7.883,7.839H117.3l-8.4-8.4ZM103.6,54.388h7.8c.511,0,.832.015,1,.179.273.274.338.408.338,1.115v2.813c0,.681-.05.923-.3,1.172-.152.152-.326.238-.978.238H103.6V54.388Z" transform="translate(-45.013 -22.907)" fill="#fff"></path><path id="Path_4" data-name="Path 4" d="M78.018,66.834c0,.666-.041.882-.237,1.078s-.462.384-1.258.384h-5.06V50.307l-.034,0-4.748,0h-.035V72.382H77.793A4.843,4.843,0,0,0,81.44,71c.98-1.1,1.2-1.838,1.2-4.165V50.306l-4.619,0V66.834Z" transform="translate(-30.348 -22.907)" fill="#fff"></path><path id="Path_5" data-name="Path 5" d="M150.413,72.381l0-16.532c0-2.326-.216-3.064-1.194-4.165a4.854,4.854,0,0,0-3.649-1.377l-11.141,0V72.381h4.811V54.39h5.06a1.536,1.536,0,0,1,1.259.386c.2.2.236.41.236,1.08V72.381Z" transform="translate(-61.211 -22.907)" fill="#fff"></path><path id="Path_6" data-name="Path 6" d="M51.989,0,31.319,0S13.1,18.261,5.237,26.118c-8.148,8.15-5.512,16.188-.7,20.986L18.581,61.16l.058-.058c-1.968-2.374-6.853-9.047-6.132-16.033.515-5.065,4.317-9.9,6.91-12.493l1.131-1.132h3.339l.022-.019v18.05h4.777l0-18.031h6.363V27.4H24.593C33.877,18.114,51.989,0,51.989,0Z" transform="translate(0)" fill="#fff"></path></g></g><path id="Path_7" data-name="Path 7" d="M31.93,130.324h6.013a1.5,1.5,0,0,1,1.5,1.5v7.516H38.431v-3.969H31.441v3.969H30.426v-7.516a1.5,1.5,0,0,1,1.5-1.5Zm-.489,3.979h6.99v-2.477a.492.492,0,0,0-.489-.489H31.929a.493.493,0,0,0-.489.489V134.3Z" transform="translate(-13.855 -59.343)" fill="#fff"></path><path id="Path_8" data-name="Path 8" d="M57.281,130.324h8.23v1.014H58.3v2.982h6.617v1.027H58.3v4H57.281Z" transform="translate(-26.083 -59.343)" fill="#fff"></path><path id="Path_9" data-name="Path 9" d="M89.068,130.324v1.014H81.852v2.982h6.63v1.027h-6.63v2.981h7.215v1.015H80.835v-9.019h8.233Z" transform="translate(-36.809 -59.343)" fill="#fff"></path><path id="Path_10" data-name="Path 10" d="M105.438,130.324h8.275v1.683h-6.364v2.045H113.4v1.564h-6.048v3.728h-1.912v-9.019Z" transform="translate(-48.011 -59.343)" fill="#fff"></path><path id="Path_11" data-name="Path 11" d="M13.174,134.758a1.451,1.451,0,0,0-1.065-.438H6.1a.48.48,0,0,1-.345-.138.451.451,0,0,1-.144-.338v-2.017a.492.492,0,0,1,.489-.489h7.125v-1.014H6.1a1.5,1.5,0,0,0-1.5,1.5v2.017a1.5,1.5,0,0,0,1.5,1.5h6.013a.479.479,0,0,1,.344.138.451.451,0,0,1,.144.338v2.017a.493.493,0,0,1-.489.489H4.94v1.015h7.169a1.5,1.5,0,0,0,1.5-1.5v-2.017A1.452,1.452,0,0,0,13.174,134.758Z" transform="translate(-2.092 -59.343)" fill="#fff"></path><path id="Path_12" data-name="Path 12" d="M132.377,130.324v7.341h-5.112v-7.341h-1.941l0,9.016,7.168,0a1.861,1.861,0,0,0,1.853-1.854v-7.165h-1.966Z" transform="translate(-57.066 -59.343)" fill="#fff"></path><path id="Path_13" data-name="Path 13" d="M154.269,139.341V132h-5.112v7.341h-1.941l0-9.016,7.168,0a1.86,1.86,0,0,1,1.853,1.854v7.165h-1.966Z" transform="translate(-67.034 -59.342)" fill="#fff"></path></g></svg>